%TF.GenerationSoftware,KiCad,Pcbnew,8.0.6*%
%TF.CreationDate,2024-10-17T17:53:17-05:00*%
%TF.ProjectId,racer,72616365-722e-46b6-9963-61645f706362,rev?*%
%TF.SameCoordinates,Original*%
%TF.FileFunction,Soldermask,Top*%
%TF.FilePolarity,Negative*%
%FSLAX46Y46*%
G04 Gerber Fmt 4.6, Leading zero omitted, Abs format (unit mm)*
G04 Created by KiCad (PCBNEW 8.0.6) date 2024-10-17 17:53:17*
%MOMM*%
%LPD*%
G01*
G04 APERTURE LIST*
G04 Aperture macros list*
%AMRoundRect*
0 Rectangle with rounded corners*
0 $1 Rounding radius*
0 $2 $3 $4 $5 $6 $7 $8 $9 X,Y pos of 4 corners*
0 Add a 4 corners polygon primitive as box body*
4,1,4,$2,$3,$4,$5,$6,$7,$8,$9,$2,$3,0*
0 Add four circle primitives for the rounded corners*
1,1,$1+$1,$2,$3*
1,1,$1+$1,$4,$5*
1,1,$1+$1,$6,$7*
1,1,$1+$1,$8,$9*
0 Add four rect primitives between the rounded corners*
20,1,$1+$1,$2,$3,$4,$5,0*
20,1,$1+$1,$4,$5,$6,$7,0*
20,1,$1+$1,$6,$7,$8,$9,0*
20,1,$1+$1,$8,$9,$2,$3,0*%
G04 Aperture macros list end*
%ADD10C,0.010000*%
%ADD11C,0.000000*%
%ADD12RoundRect,0.225000X-0.225000X-0.250000X0.225000X-0.250000X0.225000X0.250000X-0.225000X0.250000X0*%
%ADD13RoundRect,0.225000X0.250000X-0.225000X0.250000X0.225000X-0.250000X0.225000X-0.250000X-0.225000X0*%
%ADD14RoundRect,0.225000X-0.250000X0.225000X-0.250000X-0.225000X0.250000X-0.225000X0.250000X0.225000X0*%
%ADD15RoundRect,0.225000X0.225000X0.250000X-0.225000X0.250000X-0.225000X-0.250000X0.225000X-0.250000X0*%
%ADD16RoundRect,0.200000X-0.200000X-0.275000X0.200000X-0.275000X0.200000X0.275000X-0.200000X0.275000X0*%
%ADD17RoundRect,0.200000X0.200000X0.275000X-0.200000X0.275000X-0.200000X-0.275000X0.200000X-0.275000X0*%
%ADD18RoundRect,0.200000X-0.275000X0.200000X-0.275000X-0.200000X0.275000X-0.200000X0.275000X0.200000X0*%
%ADD19R,2.000000X2.000000*%
%ADD20C,2.700000*%
%ADD21RoundRect,0.200000X0.275000X-0.200000X0.275000X0.200000X-0.275000X0.200000X-0.275000X-0.200000X0*%
%ADD22RoundRect,0.175000X-0.175000X-0.325000X0.175000X-0.325000X0.175000X0.325000X-0.175000X0.325000X0*%
%ADD23RoundRect,0.075000X-0.340000X-0.075000X0.340000X-0.075000X0.340000X0.075000X-0.340000X0.075000X0*%
%ADD24RoundRect,0.225000X-0.225000X-0.425000X0.225000X-0.425000X0.225000X0.425000X-0.225000X0.425000X0*%
%ADD25RoundRect,0.102000X0.325000X-0.525000X0.325000X0.525000X-0.325000X0.525000X-0.325000X-0.525000X0*%
%ADD26RoundRect,0.250000X0.625000X-0.350000X0.625000X0.350000X-0.625000X0.350000X-0.625000X-0.350000X0*%
%ADD27O,1.750000X1.200000*%
%ADD28RoundRect,0.102000X-0.350000X-1.000000X0.350000X-1.000000X0.350000X1.000000X-0.350000X1.000000X0*%
%ADD29RoundRect,0.102000X-0.400000X-1.000000X0.400000X-1.000000X0.400000X1.000000X-0.400000X1.000000X0*%
%ADD30RoundRect,0.102000X-0.450000X-1.000000X0.450000X-1.000000X0.450000X1.000000X-0.450000X1.000000X0*%
%ADD31O,1.204000X1.904000*%
%ADD32RoundRect,0.075000X0.340000X0.075000X-0.340000X0.075000X-0.340000X-0.075000X0.340000X-0.075000X0*%
%ADD33RoundRect,0.225000X0.225000X0.425000X-0.225000X0.425000X-0.225000X-0.425000X0.225000X-0.425000X0*%
%ADD34RoundRect,0.218750X-0.256250X0.218750X-0.256250X-0.218750X0.256250X-0.218750X0.256250X0.218750X0*%
%ADD35R,1.700000X1.700000*%
%ADD36O,1.700000X1.700000*%
%ADD37RoundRect,0.102000X0.200000X-0.400000X0.200000X0.400000X-0.200000X0.400000X-0.200000X-0.400000X0*%
%ADD38RoundRect,0.102000X0.400000X-0.200000X0.400000X0.200000X-0.400000X0.200000X-0.400000X-0.200000X0*%
%ADD39RoundRect,0.102000X0.725000X-0.725000X0.725000X0.725000X-0.725000X0.725000X-0.725000X-0.725000X0*%
%ADD40RoundRect,0.102000X0.350000X-0.350000X0.350000X0.350000X-0.350000X0.350000X-0.350000X-0.350000X0*%
%ADD41RoundRect,0.102000X-0.525000X-0.325000X0.525000X-0.325000X0.525000X0.325000X-0.525000X0.325000X0*%
%ADD42RoundRect,0.150000X-0.200000X0.150000X-0.200000X-0.150000X0.200000X-0.150000X0.200000X0.150000X0*%
%ADD43C,1.000000*%
%ADD44RoundRect,0.102000X1.250000X-0.600000X1.250000X0.600000X-1.250000X0.600000X-1.250000X-0.600000X0*%
%ADD45RoundRect,0.134560X-0.097440X-0.387440X0.097440X-0.387440X0.097440X0.387440X-0.097440X0.387440X0*%
%ADD46RoundRect,0.102000X-1.175000X-0.790000X1.175000X-0.790000X1.175000X0.790000X-1.175000X0.790000X0*%
G04 APERTURE END LIST*
D10*
%TO.C,U5*%
X10404800Y24187200D02*
X9404800Y24187200D01*
X8754800Y24837200D01*
X8754800Y25837200D01*
X10404800Y25837200D01*
X10404800Y24187200D01*
G36*
X10404800Y24187200D02*
G01*
X9404800Y24187200D01*
X8754800Y24837200D01*
X8754800Y25837200D01*
X10404800Y25837200D01*
X10404800Y24187200D01*
G37*
D11*
%TO.C,G\u002A\u002A\u002A*%
G36*
X31756466Y44247325D02*
G01*
X31720834Y44248030D01*
X31693577Y44250025D01*
X31660259Y44254444D01*
X31636443Y44258698D01*
X31544958Y44284766D01*
X31460584Y44323783D01*
X31384213Y44375046D01*
X31316732Y44437854D01*
X31259032Y44511504D01*
X31213051Y44593059D01*
X31187293Y44655222D01*
X31170407Y44715744D01*
X31160696Y44781324D01*
X31158611Y44807730D01*
X31159922Y44901161D01*
X31175503Y44991854D01*
X31204683Y45078418D01*
X31246790Y45159464D01*
X31301153Y45233602D01*
X31367099Y45299441D01*
X31413715Y45335629D01*
X31475554Y45372986D01*
X31543466Y45403434D01*
X31613263Y45425534D01*
X31680753Y45437843D01*
X31717084Y45439929D01*
X31756466Y45440060D01*
X31756466Y44247325D01*
G37*
G36*
X35073994Y45440007D02*
G01*
X35110040Y45437128D01*
X35154230Y45429426D01*
X35201002Y45418188D01*
X35244796Y45404697D01*
X35270908Y45394511D01*
X35310389Y45374497D01*
X35354647Y45347939D01*
X35397824Y45318625D01*
X35434060Y45290344D01*
X35439791Y45285297D01*
X35498902Y45222110D01*
X35548289Y45149221D01*
X35587069Y45069052D01*
X35614356Y44984022D01*
X35629268Y44896552D01*
X35630921Y44809064D01*
X35627299Y44771777D01*
X35607614Y44678874D01*
X35574922Y44592126D01*
X35530217Y44512608D01*
X35474494Y44441393D01*
X35408746Y44379554D01*
X35333968Y44328165D01*
X35251153Y44288300D01*
X35161297Y44261031D01*
X35152604Y44259171D01*
X35120201Y44253305D01*
X35089160Y44249068D01*
X35065915Y44247331D01*
X35064934Y44247325D01*
X35034612Y44247325D01*
X35034612Y45440060D01*
X35073994Y45440007D01*
G37*
G36*
X33395539Y45330815D02*
G01*
X33438813Y45330410D01*
X33470883Y45329245D01*
X33495547Y45326811D01*
X33516604Y45322600D01*
X33537850Y45316104D01*
X33556663Y45309250D01*
X33633755Y45272709D01*
X33703264Y45224757D01*
X33763711Y45166950D01*
X33813611Y45100847D01*
X33851483Y45028005D01*
X33867594Y44982470D01*
X33881401Y44913122D01*
X33884764Y44838096D01*
X33877995Y44762173D01*
X33861406Y44690135D01*
X33845793Y44648309D01*
X33805180Y44574243D01*
X33753766Y44509491D01*
X33693093Y44454837D01*
X33624702Y44411066D01*
X33550136Y44378961D01*
X33470934Y44359307D01*
X33388639Y44352886D01*
X33304791Y44360483D01*
X33286768Y44364011D01*
X33213679Y44387061D01*
X33143738Y44423173D01*
X33079048Y44470439D01*
X33021712Y44526954D01*
X32973835Y44590812D01*
X32937519Y44660108D01*
X32926065Y44690844D01*
X32918336Y44716526D01*
X32913143Y44740398D01*
X32910019Y44766549D01*
X32908495Y44799072D01*
X32908100Y44842057D01*
X32908105Y44847443D01*
X32908470Y44890520D01*
X32909745Y44922571D01*
X32912442Y44947566D01*
X32917071Y44969478D01*
X32924143Y44992278D01*
X32928203Y45003733D01*
X32957401Y45071408D01*
X32993590Y45129888D01*
X33040176Y45184546D01*
X33047377Y45191855D01*
X33101616Y45239846D01*
X33158971Y45277149D01*
X33224798Y45307160D01*
X33235498Y45311157D01*
X33259162Y45319319D01*
X33279996Y45324902D01*
X33301784Y45328371D01*
X33328311Y45330191D01*
X33363361Y45330828D01*
X33395539Y45330815D01*
G37*
G36*
X33427181Y46871813D02*
G01*
X33507861Y46868407D01*
X33583736Y46861799D01*
X33650166Y46852102D01*
X33658091Y46850576D01*
X33798529Y46815169D01*
X33933336Y46766346D01*
X34061644Y46704765D01*
X34182583Y46631085D01*
X34295283Y46545965D01*
X34398876Y46450063D01*
X34492493Y46344038D01*
X34575264Y46228548D01*
X34646320Y46104253D01*
X34648355Y46100208D01*
X34697324Y45992815D01*
X34735028Y45887745D01*
X34753056Y45823624D01*
X34760221Y45795325D01*
X34766549Y45769690D01*
X34772097Y45745635D01*
X34776921Y45722075D01*
X34781078Y45697926D01*
X34784625Y45672104D01*
X34787619Y45643524D01*
X34790117Y45611102D01*
X34792175Y45573753D01*
X34793850Y45530394D01*
X34795199Y45479940D01*
X34796279Y45421306D01*
X34797146Y45353409D01*
X34797858Y45275164D01*
X34798470Y45185486D01*
X34799041Y45083291D01*
X34799626Y44967496D01*
X34799808Y44930886D01*
X34800438Y44793379D01*
X34800842Y44669868D01*
X34800959Y44559347D01*
X34800726Y44460808D01*
X34800083Y44373246D01*
X34798966Y44295654D01*
X34797314Y44227026D01*
X34795066Y44166356D01*
X34792160Y44112637D01*
X34788534Y44064862D01*
X34784125Y44022027D01*
X34778873Y43983123D01*
X34772716Y43947145D01*
X34765591Y43913086D01*
X34757438Y43879941D01*
X34748193Y43846702D01*
X34737796Y43812364D01*
X34729530Y43786296D01*
X34681057Y43659075D01*
X34619169Y43535921D01*
X34545106Y43418413D01*
X34460112Y43308130D01*
X34365429Y43206652D01*
X34262301Y43115559D01*
X34151969Y43036431D01*
X34127753Y43021331D01*
X34082645Y42993930D01*
X34112591Y42954871D01*
X34140421Y42913386D01*
X34168519Y42862499D01*
X34194316Y42807540D01*
X34215244Y42753842D01*
X34225381Y42720774D01*
X34236135Y42664022D01*
X34241707Y42598884D01*
X34242025Y42531084D01*
X34237016Y42466343D01*
X34229154Y42420715D01*
X34210346Y42354899D01*
X34184132Y42285653D01*
X34153465Y42220403D01*
X34139436Y42195070D01*
X34117747Y42159369D01*
X34094387Y42123767D01*
X34068204Y42086815D01*
X34038051Y42047062D01*
X34002777Y42003057D01*
X33961232Y41953350D01*
X33912266Y41896491D01*
X33854731Y41831029D01*
X33818802Y41790591D01*
X33749971Y41712381D01*
X33690853Y41642925D01*
X33640287Y41580641D01*
X33597114Y41523943D01*
X33560175Y41471247D01*
X33528311Y41420967D01*
X33500364Y41371521D01*
X33475173Y41321322D01*
X33474528Y41319958D01*
X33438467Y41243580D01*
X33415102Y41280423D01*
X33391402Y41320896D01*
X33375157Y41357608D01*
X33365113Y41395224D01*
X33360016Y41438410D01*
X33358612Y41490532D01*
X33360009Y41542906D01*
X33365090Y41587214D01*
X33375107Y41627765D01*
X33391309Y41668865D01*
X33414947Y41714825D01*
X33432663Y41745582D01*
X33466150Y41807795D01*
X33488528Y41863416D01*
X33500464Y41915147D01*
X33502627Y41965690D01*
X33497577Y42008134D01*
X33478015Y42074888D01*
X33445680Y42136448D01*
X33402274Y42190541D01*
X33349498Y42234895D01*
X33310847Y42257489D01*
X33281957Y42271203D01*
X33259502Y42279568D01*
X33237679Y42283895D01*
X33210686Y42285493D01*
X33185887Y42285689D01*
X33149660Y42284965D01*
X33123409Y42282224D01*
X33102152Y42276610D01*
X33082127Y42267878D01*
X33037812Y42240155D01*
X32997304Y42204253D01*
X32964929Y42164347D01*
X32952307Y42142515D01*
X32935520Y42092992D01*
X32928766Y42036430D01*
X32931873Y41976784D01*
X32944666Y41918011D01*
X32964286Y41869197D01*
X32971818Y41851367D01*
X32973247Y41840740D01*
X32971519Y41839351D01*
X32959477Y41843885D01*
X32938664Y41856200D01*
X32911742Y41874366D01*
X32881377Y41896452D01*
X32850232Y41920529D01*
X32820973Y41944666D01*
X32798936Y41964389D01*
X32726319Y42042865D01*
X32665783Y42129306D01*
X32617835Y42222350D01*
X32582984Y42320639D01*
X32561737Y42422812D01*
X32554602Y42527511D01*
X32558838Y42607062D01*
X32574479Y42707520D01*
X32599458Y42798098D01*
X32634603Y42881273D01*
X32673035Y42947918D01*
X32687351Y42970711D01*
X32697258Y42988055D01*
X32700941Y42996736D01*
X32700804Y42997130D01*
X32693397Y43001866D01*
X32676904Y43012167D01*
X32656644Y43024721D01*
X32538078Y43106611D01*
X32429554Y43199235D01*
X32331628Y43301703D01*
X32244854Y43413126D01*
X32169789Y43532612D01*
X32106988Y43659273D01*
X32057007Y43792219D01*
X32020401Y43930561D01*
X31997726Y44073407D01*
X31996911Y44081212D01*
X31995526Y44102718D01*
X31994271Y44137792D01*
X31993148Y44185081D01*
X31992157Y44243237D01*
X31991296Y44310909D01*
X31990567Y44386746D01*
X31989969Y44469398D01*
X31989502Y44557515D01*
X31989167Y44649746D01*
X31988962Y44744741D01*
X31988889Y44841149D01*
X31988946Y44937621D01*
X31989135Y45032806D01*
X31989454Y45125353D01*
X31989703Y45174271D01*
X32597139Y45174271D01*
X32597232Y45080620D01*
X32597498Y44974353D01*
X32597893Y44854475D01*
X32598078Y44802434D01*
X32600586Y44101046D01*
X32621084Y44026031D01*
X32657229Y43920490D01*
X32705510Y43822638D01*
X32765125Y43733358D01*
X32835273Y43653533D01*
X32915154Y43584045D01*
X33003966Y43525775D01*
X33100909Y43479606D01*
X33125662Y43470294D01*
X33229272Y43440675D01*
X33334544Y43424930D01*
X33439437Y43423246D01*
X33527708Y43433173D01*
X33632940Y43459122D01*
X33733186Y43498940D01*
X33827159Y43551956D01*
X33913571Y43617500D01*
X33954242Y43655460D01*
X34027326Y43738812D01*
X34087413Y43829481D01*
X34134196Y43926828D01*
X34167366Y44030211D01*
X34186427Y44137311D01*
X34187898Y44158417D01*
X34189222Y44193107D01*
X34190401Y44239964D01*
X34191434Y44297569D01*
X34192321Y44364506D01*
X34193062Y44439356D01*
X34193657Y44520702D01*
X34194107Y44607125D01*
X34194410Y44697209D01*
X34194568Y44789534D01*
X34194580Y44882685D01*
X34194446Y44975241D01*
X34194166Y45065787D01*
X34193741Y45152904D01*
X34193169Y45235174D01*
X34192452Y45311180D01*
X34191588Y45379503D01*
X34190579Y45438727D01*
X34189424Y45487432D01*
X34188124Y45524202D01*
X34186677Y45547619D01*
X34186427Y45550074D01*
X34167376Y45657074D01*
X34135303Y45758274D01*
X34091167Y45852804D01*
X34035922Y45939799D01*
X33970526Y46018388D01*
X33895936Y46087706D01*
X33813107Y46146884D01*
X33722996Y46195055D01*
X33626559Y46231350D01*
X33524753Y46254903D01*
X33418535Y46264845D01*
X33398243Y46265124D01*
X33287242Y46258390D01*
X33182175Y46237885D01*
X33082862Y46203536D01*
X32989123Y46155271D01*
X32900778Y46093019D01*
X32846989Y46045809D01*
X32775711Y45969804D01*
X32717577Y45888973D01*
X32670878Y45800624D01*
X32638904Y45717614D01*
X32631909Y45696169D01*
X32625709Y45676030D01*
X32620259Y45656202D01*
X32615516Y45635692D01*
X32611433Y45613505D01*
X32607968Y45588646D01*
X32605075Y45560122D01*
X32602711Y45526937D01*
X32600831Y45488097D01*
X32599391Y45442608D01*
X32598346Y45389475D01*
X32597652Y45327705D01*
X32597264Y45256301D01*
X32597139Y45174271D01*
X31989703Y45174271D01*
X31989905Y45213913D01*
X31990486Y45297134D01*
X31991198Y45373667D01*
X31992041Y45442161D01*
X31993015Y45501265D01*
X31994120Y45549631D01*
X31995355Y45585906D01*
X31996721Y45608741D01*
X31996947Y45611014D01*
X32019008Y45753021D01*
X32053654Y45887795D01*
X32101339Y46016931D01*
X32130974Y46081436D01*
X32201739Y46209112D01*
X32283796Y46327412D01*
X32376365Y46435766D01*
X32478662Y46533605D01*
X32589907Y46620359D01*
X32709315Y46695460D01*
X32836106Y46758337D01*
X32969498Y46808422D01*
X33108707Y46845144D01*
X33202718Y46861689D01*
X33269968Y46868567D01*
X33346336Y46871904D01*
X33427181Y46871813D01*
G37*
%TD*%
D12*
%TO.C,D4*%
X2514000Y48945800D03*
X4064000Y48945800D03*
%TD*%
D13*
%TO.C,C2*%
X20150400Y44144200D03*
X20150400Y45694200D03*
%TD*%
D12*
%TO.C,C16*%
X24117000Y17195800D03*
X25667000Y17195800D03*
%TD*%
D14*
%TO.C,C7*%
X13538200Y5868000D03*
X13538200Y4318000D03*
%TD*%
D15*
%TO.C,C12*%
X8395000Y15468600D03*
X6845000Y15468600D03*
%TD*%
D16*
%TO.C,R6*%
X7379200Y7379000D03*
X9029200Y7379000D03*
%TD*%
D17*
%TO.C,R4*%
X27579400Y42887200D03*
X25929400Y42887200D03*
%TD*%
D18*
%TO.C,R23*%
X24663400Y25881600D03*
X24663400Y24231600D03*
%TD*%
D17*
%TO.C,R14*%
X30365200Y48945800D03*
X28715200Y48945800D03*
%TD*%
D19*
%TO.C,J5*%
X14071600Y1727200D03*
%TD*%
%TO.C,J7*%
X21945600Y8407400D03*
%TD*%
D12*
%TO.C,C14*%
X31067200Y31521400D03*
X32617200Y31521400D03*
%TD*%
D19*
%TO.C,J4*%
X14528800Y48183800D03*
%TD*%
D14*
%TO.C,D9*%
X28930600Y17361200D03*
X28930600Y15811200D03*
%TD*%
D18*
%TO.C,R7*%
X29743400Y5574800D03*
X29743400Y3924800D03*
%TD*%
D20*
%TO.C,REF\u002A\u002A*%
X18008600Y47599600D03*
%TD*%
D21*
%TO.C,R26*%
X7035800Y40856400D03*
X7035800Y42506400D03*
%TD*%
D18*
%TO.C,R25*%
X34636200Y34884400D03*
X34636200Y33234400D03*
%TD*%
%TO.C,R28*%
X26974800Y10172200D03*
X26974800Y8522200D03*
%TD*%
D22*
%TO.C,U6*%
X30942200Y33523400D03*
X31892200Y33523400D03*
X32842200Y33523400D03*
X32842200Y36123400D03*
X30942200Y36123400D03*
%TD*%
D12*
%TO.C,C15*%
X30975000Y37896800D03*
X32525000Y37896800D03*
%TD*%
D21*
%TO.C,R17*%
X18999200Y15939000D03*
X18999200Y17589000D03*
%TD*%
%TO.C,R5*%
X5867400Y5829800D03*
X5867400Y7479800D03*
%TD*%
D18*
%TO.C,R29*%
X25349200Y10146800D03*
X25349200Y8496800D03*
%TD*%
D19*
%TO.C,J3*%
X14554200Y41452800D03*
%TD*%
D16*
%TO.C,R12*%
X6363200Y1371600D03*
X8013200Y1371600D03*
%TD*%
D14*
%TO.C,C13*%
X18948400Y24600200D03*
X18948400Y23050200D03*
%TD*%
D19*
%TO.C,J6*%
X13944600Y8432800D03*
%TD*%
D14*
%TO.C,D8*%
X33096200Y17361200D03*
X33096200Y15811200D03*
%TD*%
D17*
%TO.C,R10*%
X26479000Y38912800D03*
X24829000Y38912800D03*
%TD*%
%TO.C,R9*%
X11594600Y13792200D03*
X9944600Y13792200D03*
%TD*%
D16*
%TO.C,R30*%
X24829000Y40513000D03*
X26479000Y40513000D03*
%TD*%
D23*
%TO.C,U4*%
X25162800Y5818000D03*
X25162800Y5318000D03*
X25162800Y4818000D03*
X25162800Y4318000D03*
X27292800Y4318000D03*
X27292800Y4818000D03*
X27292800Y5318000D03*
X27292800Y5818000D03*
D24*
X26237800Y5068000D03*
%TD*%
D25*
%TO.C,S2*%
X18787800Y28913000D03*
X18787800Y33063000D03*
X20937800Y28913000D03*
X20937800Y33063000D03*
%TD*%
D18*
%TO.C,R22*%
X27432000Y22300200D03*
X27432000Y20650200D03*
%TD*%
%TO.C,R3*%
X29159200Y44462200D03*
X29159200Y42812200D03*
%TD*%
D14*
%TO.C,C3*%
X14165000Y45602000D03*
X14165000Y44052000D03*
%TD*%
D26*
%TO.C,J12*%
X25739000Y33163000D03*
D27*
X25739000Y35163000D03*
%TD*%
D13*
%TO.C,C8*%
X22466800Y4305000D03*
X22466800Y5855000D03*
%TD*%
D28*
%TO.C,P1*%
X17534000Y13031600D03*
D29*
X16514000Y13031600D03*
D30*
X15284000Y13031600D03*
D28*
X18534000Y13031600D03*
D29*
X19554000Y13031600D03*
D30*
X20784000Y13031600D03*
D31*
X13764000Y12231600D03*
X22304000Y12231600D03*
%TD*%
D17*
%TO.C,R13*%
X29666400Y1371600D03*
X28016400Y1371600D03*
%TD*%
D32*
%TO.C,U1*%
X11430000Y44077000D03*
X11430000Y44577000D03*
X11430000Y45077000D03*
X11430000Y45577000D03*
X9300000Y45577000D03*
X9300000Y45077000D03*
X9300000Y44577000D03*
X9300000Y44077000D03*
D33*
X10355000Y44827000D03*
%TD*%
D21*
%TO.C,TH1*%
X24664800Y27533600D03*
X24664800Y29183600D03*
%TD*%
D23*
%TO.C,U2*%
X24409400Y45669200D03*
X24409400Y45169200D03*
X24409400Y44669200D03*
X24409400Y44169200D03*
X26539400Y44169200D03*
X26539400Y44669200D03*
X26539400Y45169200D03*
X26539400Y45669200D03*
D24*
X25484400Y44919200D03*
%TD*%
D16*
%TO.C,R15*%
X5766000Y48945800D03*
X7416000Y48945800D03*
%TD*%
D34*
%TO.C,D6*%
X34636200Y39166900D03*
X34636200Y37591900D03*
%TD*%
D35*
%TO.C,J11*%
X14706600Y36144200D03*
D36*
X12166600Y36144200D03*
X9626600Y36144200D03*
X7086600Y36144200D03*
%TD*%
D37*
%TO.C,U5*%
X7554800Y21087200D03*
X8354800Y21087200D03*
X9154800Y21087200D03*
X9954800Y21087200D03*
X10754800Y21087200D03*
X11554800Y21087200D03*
X12354800Y21087200D03*
X13154800Y21087200D03*
X13954800Y21087200D03*
X14754800Y21087200D03*
X15554800Y21087200D03*
D38*
X16454800Y22187200D03*
X16454800Y22987200D03*
X16454800Y23787200D03*
X16454800Y24587200D03*
X16454800Y25387200D03*
X16454800Y26187200D03*
X16454800Y26987200D03*
X16454800Y27787200D03*
X16454800Y28587200D03*
X16454800Y29387200D03*
X16454800Y30187200D03*
X16454800Y30987200D03*
X16454800Y31787200D03*
D37*
X15554800Y32887200D03*
X14754800Y32887200D03*
X13954800Y32887200D03*
X13154800Y32887200D03*
X12354800Y32887200D03*
X11554800Y32887200D03*
X10754800Y32887200D03*
X9954800Y32887200D03*
X9154800Y32887200D03*
X8354800Y32887200D03*
X7554800Y32887200D03*
D38*
X6654800Y31787200D03*
X6654800Y30987200D03*
X6654800Y30187200D03*
X6654800Y29387200D03*
X6654800Y28587200D03*
X6654800Y27787200D03*
X6654800Y26987200D03*
X6654800Y26187200D03*
X6654800Y25387200D03*
X6654800Y24587200D03*
X6654800Y23787200D03*
X6654800Y22987200D03*
X6654800Y22187200D03*
D39*
X11554800Y25012200D03*
X13529800Y25012200D03*
X9579800Y26987200D03*
X11554800Y26987200D03*
X13529800Y26987200D03*
X9579800Y28962200D03*
X11554800Y28962200D03*
X13529800Y28962200D03*
D40*
X6604800Y32937200D03*
X16504800Y32937200D03*
X16504800Y21037200D03*
X6604800Y21037200D03*
%TD*%
D13*
%TO.C,C4*%
X21928400Y44144200D03*
X21928400Y45694200D03*
%TD*%
D14*
%TO.C,C5*%
X15316200Y5868000D03*
X15316200Y4318000D03*
%TD*%
D16*
%TO.C,R11*%
X18707600Y26746200D03*
X20357600Y26746200D03*
%TD*%
D15*
%TO.C,D2*%
X32918400Y1371600D03*
X31368400Y1371600D03*
%TD*%
D32*
%TO.C,U3*%
X10842200Y4355000D03*
X10842200Y4855000D03*
X10842200Y5355000D03*
X10842200Y5855000D03*
X8712200Y5855000D03*
X8712200Y5355000D03*
X8712200Y4855000D03*
X8712200Y4355000D03*
D33*
X9767200Y5105000D03*
%TD*%
D21*
%TO.C,R1*%
X7366000Y45580800D03*
X7366000Y47230800D03*
%TD*%
D12*
%TO.C,D1*%
X3187400Y1362200D03*
X4737400Y1362200D03*
%TD*%
D21*
%TO.C,R18*%
X17145000Y15939000D03*
X17145000Y17589000D03*
%TD*%
%TO.C,R27*%
X8631400Y40869600D03*
X8631400Y42519600D03*
%TD*%
D41*
%TO.C,S3*%
X6332400Y11768400D03*
X10482400Y11768400D03*
X6332400Y9618400D03*
X10482400Y9618400D03*
%TD*%
D19*
%TO.C,J2*%
X21640800Y41452800D03*
%TD*%
D13*
%TO.C,C6*%
X20688800Y4320000D03*
X20688800Y5870000D03*
%TD*%
D15*
%TO.C,C11*%
X8369600Y18872200D03*
X6819600Y18872200D03*
%TD*%
%TO.C,C10*%
X8407400Y13792200D03*
X6857400Y13792200D03*
%TD*%
D20*
%TO.C,REF\u002A\u002A*%
X18008600Y2997200D03*
%TD*%
D14*
%TO.C,C1*%
X15943000Y45602000D03*
X15943000Y44052000D03*
%TD*%
D21*
%TO.C,R21*%
X28930600Y12675600D03*
X28930600Y14325600D03*
%TD*%
D15*
%TO.C,D3*%
X33617200Y48920400D03*
X32067200Y48920400D03*
%TD*%
D19*
%TO.C,J1*%
X21615400Y48183800D03*
%TD*%
D42*
%TO.C,D5*%
X20777200Y16064000D03*
X20777200Y17464000D03*
%TD*%
D19*
%TO.C,J8*%
X21894800Y1752600D03*
%TD*%
D43*
%TO.C,S1*%
X33858200Y21009400D03*
X33858200Y27809400D03*
D44*
X31108200Y21909400D03*
X31108200Y24409400D03*
X31108200Y26909400D03*
%TD*%
D18*
%TO.C,R24*%
X26466800Y29183600D03*
X26466800Y27533600D03*
%TD*%
D21*
%TO.C,R20*%
X33096200Y12687800D03*
X33096200Y14337800D03*
%TD*%
D16*
%TO.C,R2*%
X8979400Y47167800D03*
X10629400Y47167800D03*
%TD*%
D45*
%TO.C,U7*%
X23604600Y19367200D03*
X24104600Y19367200D03*
X24604600Y19367200D03*
X25104600Y19367200D03*
X25604600Y19367200D03*
X25604600Y22237200D03*
X25104600Y22237200D03*
X24604600Y22237200D03*
X24104600Y22237200D03*
X23604600Y22237200D03*
D46*
X24604600Y20802200D03*
%TD*%
D13*
%TO.C,C17*%
X22860000Y24281600D03*
X22860000Y25831600D03*
%TD*%
D21*
%TO.C,R16*%
X15265400Y15939000D03*
X15265400Y17589000D03*
%TD*%
D15*
%TO.C,C9*%
X8395000Y17195800D03*
X6845000Y17195800D03*
%TD*%
D21*
%TO.C,R8*%
X31369000Y3924800D03*
X31369000Y5574800D03*
%TD*%
M02*
