%TF.GenerationSoftware,KiCad,Pcbnew,8.0.6*%
%TF.CreationDate,2024-10-17T17:53:17-05:00*%
%TF.ProjectId,racer,72616365-722e-46b6-9963-61645f706362,rev?*%
%TF.SameCoordinates,Original*%
%TF.FileFunction,Copper,L4,Bot*%
%TF.FilePolarity,Positive*%
%FSLAX46Y46*%
G04 Gerber Fmt 4.6, Leading zero omitted, Abs format (unit mm)*
G04 Created by KiCad (PCBNEW 8.0.6) date 2024-10-17 17:53:17*
%MOMM*%
%LPD*%
G01*
G04 APERTURE LIST*
G04 Aperture macros list*
%AMRoundRect*
0 Rectangle with rounded corners*
0 $1 Rounding radius*
0 $2 $3 $4 $5 $6 $7 $8 $9 X,Y pos of 4 corners*
0 Add a 4 corners polygon primitive as box body*
4,1,4,$2,$3,$4,$5,$6,$7,$8,$9,$2,$3,0*
0 Add four circle primitives for the rounded corners*
1,1,$1+$1,$2,$3*
1,1,$1+$1,$4,$5*
1,1,$1+$1,$6,$7*
1,1,$1+$1,$8,$9*
0 Add four rect primitives between the rounded corners*
20,1,$1+$1,$2,$3,$4,$5,0*
20,1,$1+$1,$4,$5,$6,$7,0*
20,1,$1+$1,$6,$7,$8,$9,0*
20,1,$1+$1,$8,$9,$2,$3,0*%
G04 Aperture macros list end*
%TA.AperFunction,ComponentPad*%
%ADD10RoundRect,0.250000X0.625000X-0.350000X0.625000X0.350000X-0.625000X0.350000X-0.625000X-0.350000X0*%
%TD*%
%TA.AperFunction,ComponentPad*%
%ADD11O,1.750000X1.200000*%
%TD*%
%TA.AperFunction,ComponentPad*%
%ADD12O,1.000000X1.700000*%
%TD*%
%TA.AperFunction,ComponentPad*%
%ADD13R,1.700000X1.700000*%
%TD*%
%TA.AperFunction,ComponentPad*%
%ADD14O,1.700000X1.700000*%
%TD*%
%TA.AperFunction,ComponentPad*%
%ADD15C,0.508000*%
%TD*%
%TA.AperFunction,SMDPad,CuDef*%
%ADD16C,1.000000*%
%TD*%
%TA.AperFunction,SMDPad,CuDef*%
%ADD17R,2.400000X0.740000*%
%TD*%
%TA.AperFunction,ViaPad*%
%ADD18C,0.508000*%
%TD*%
%TA.AperFunction,Conductor*%
%ADD19C,0.203200*%
%TD*%
%TA.AperFunction,Conductor*%
%ADD20C,0.304800*%
%TD*%
G04 APERTURE END LIST*
D10*
%TO.P,J12,1,Pin_1*%
%TO.N,GND*%
X25739000Y33163000D03*
D11*
%TO.P,J12,2,Pin_2*%
%TO.N,LIPO+*%
X25739000Y35163000D03*
%TD*%
D12*
%TO.P,P1,S1,SHIELD*%
%TO.N,Net-(P1-SHIELD)*%
X13764000Y12231600D03*
%TO.P,P1,S2*%
%TO.N,N/C*%
X22304000Y12231600D03*
%TD*%
D13*
%TO.P,J11,1,Pin_1*%
%TO.N,/U0RXD*%
X14706600Y36144200D03*
D14*
%TO.P,J11,2,Pin_2*%
%TO.N,/U0TXD*%
X12166600Y36144200D03*
%TO.P,J11,3,Pin_3*%
%TO.N,GND*%
X9626600Y36144200D03*
%TO.P,J11,4,Pin_4*%
%TO.N,+3V3*%
X7086600Y36144200D03*
%TD*%
D15*
%TO.P,U5,49,EPAD*%
%TO.N,GND*%
X10567300Y25012200D03*
X12542300Y25012200D03*
X9579800Y25999700D03*
X11554800Y25999700D03*
X13529800Y25999700D03*
X10567300Y26987200D03*
X12542300Y26987200D03*
X9579800Y27974700D03*
X11554800Y27974700D03*
X13529800Y27974700D03*
X10567300Y28962200D03*
X12542300Y28962200D03*
%TD*%
D16*
%TO.P,TP6,1,1*%
%TO.N,Net-(U5-IO11)*%
X17907000Y29438600D03*
%TD*%
D17*
%TO.P,J9,1,Pin_1*%
%TO.N,/SDA*%
X19927400Y41757600D03*
%TO.P,J9,2,Pin_2*%
%TO.N,+3V3*%
X16027400Y41757600D03*
%TO.P,J9,3,Pin_3*%
%TO.N,/SCL*%
X19927400Y40487600D03*
%TO.P,J9,4,Pin_4*%
%TO.N,/OPT_INT*%
X16027400Y40487600D03*
%TO.P,J9,5,Pin_5*%
%TO.N,GND*%
X19927400Y39217600D03*
%TO.P,J9,6,Pin_6*%
%TO.N,/HAL_OUT*%
X16027400Y39217600D03*
%TD*%
D16*
%TO.P,TP1,1,1*%
%TO.N,Net-(U5-IO3)*%
X11557000Y22021800D03*
%TD*%
D18*
%TO.N,GND*%
X5181600Y47548800D03*
X14554200Y10820400D03*
X27813000Y29768800D03*
X5588000Y19862800D03*
X5588000Y12877800D03*
X34417000Y47091600D03*
X26873200Y19354800D03*
X18745200Y19989800D03*
X32791400Y5562600D03*
X17297400Y43815000D03*
X26644600Y3657600D03*
X26263600Y15722600D03*
X19304000Y6756400D03*
X23774400Y6527800D03*
X20294600Y37642800D03*
X10922000Y40589200D03*
X33909000Y30632400D03*
X17653000Y33375600D03*
X20828000Y24612600D03*
X1778000Y2768600D03*
X31877000Y32562800D03*
X33197800Y39903400D03*
X33832800Y2844800D03*
X10998200Y49707800D03*
X23647400Y30200600D03*
X9779000Y48158400D03*
X22275800Y28930600D03*
X10388600Y8356600D03*
X20777200Y10922000D03*
X8686800Y3378200D03*
X26924000Y46761400D03*
X15925800Y2971800D03*
X24028400Y10210800D03*
X28854400Y10439400D03*
%TO.N,+3V3*%
X11252200Y15087600D03*
X20066000Y24612600D03*
X30962600Y38862000D03*
X12293600Y40157400D03*
X9499600Y17195800D03*
%TO.N,/ADC_BATT*%
X23723600Y38912800D03*
X10744200Y19964400D03*
%TO.N,Net-(U5-IO27)*%
X9271000Y1346200D03*
X13919200Y31826200D03*
%TO.N,Net-(U5-IO26)*%
X27051000Y1371600D03*
X14757400Y31851600D03*
%TO.N,Net-(U5-IO25)*%
X17729200Y34417000D03*
X27635200Y48895000D03*
%TO.N,Net-(U5-IO22)*%
X8407400Y48945800D03*
X17653000Y31800800D03*
%TO.N,MOTOR_0_IN1*%
X8102600Y44551600D03*
X7721600Y4851400D03*
X17754600Y21945600D03*
%TO.N,MOTOR_0_IN2*%
X17780000Y22809200D03*
X7670800Y4114800D03*
X9296400Y43459400D03*
%TO.N,MOTOR_1_IN1*%
X27940000Y45161200D03*
X28219400Y5334000D03*
X17551400Y27000200D03*
%TO.N,MOTOR_1_IN2*%
X27305000Y6502400D03*
X17551400Y27787600D03*
X27432000Y45669200D03*
%TO.N,/SCL*%
X13970000Y22148800D03*
%TO.N,Net-(U5-IO11)*%
X15570200Y29387800D03*
%TO.N,Net-(U5-IO3)*%
X10490200Y22783800D03*
%TO.N,/SDA*%
X14757400Y22148800D03*
%TO.N,/HAL_OUT*%
X15417800Y28625800D03*
%TO.N,/CHRGR+*%
X21818600Y24282400D03*
X28702000Y23368000D03*
%TO.N,RAW*%
X29133800Y26924000D03*
X17297400Y5918200D03*
X27152600Y30835600D03*
X29438600Y9448800D03*
%TD*%
D19*
%TO.N,+3V3*%
X12293600Y40944800D02*
X12293600Y40157400D01*
X13106400Y41757600D02*
X12293600Y40944800D01*
X16027400Y41757600D02*
X13106400Y41757600D01*
%TO.N,/SCL*%
X21793200Y40157400D02*
X21793200Y35890200D01*
X13970000Y22707600D02*
X13970000Y22148800D01*
X21793200Y35890200D02*
X19913600Y34010600D01*
X17551400Y23749000D02*
X15011400Y23749000D01*
X21463000Y40487600D02*
X21793200Y40157400D01*
X15011400Y23749000D02*
X13970000Y22707600D01*
X19913600Y34010600D02*
X19913600Y26111200D01*
X19927400Y40487600D02*
X21463000Y40487600D01*
X19913600Y26111200D02*
X17551400Y23749000D01*
%TO.N,Net-(U5-IO11)*%
X15925800Y29387800D02*
X15976600Y29438600D01*
X15570200Y29387800D02*
X15925800Y29387800D01*
X15976600Y29438600D02*
X17907000Y29438600D01*
%TO.N,Net-(U5-IO3)*%
X10490200Y22783800D02*
X10795000Y22783800D01*
X10795000Y22783800D02*
X11557000Y22021800D01*
%TO.N,/SDA*%
X14757400Y22992106D02*
X15158694Y23393400D01*
X21742400Y41757600D02*
X19927400Y41757600D01*
X14757400Y22148800D02*
X14757400Y22992106D01*
X20269200Y33863306D02*
X22148800Y35742906D01*
X20269200Y25963906D02*
X20269200Y33863306D01*
X17698694Y23393400D02*
X20269200Y25963906D01*
X15158694Y23393400D02*
X17698694Y23393400D01*
X22148800Y41351200D02*
X21742400Y41757600D01*
X22148800Y35742906D02*
X22148800Y41351200D01*
%TO.N,/HAL_OUT*%
X16027400Y38379400D02*
X16027400Y39217600D01*
X16764000Y31572200D02*
X16764000Y37642800D01*
X15062200Y29870400D02*
X16764000Y31572200D01*
X15417800Y28625800D02*
X15062200Y28981400D01*
X16764000Y37642800D02*
X16027400Y38379400D01*
X15062200Y28981400D02*
X15062200Y29870400D01*
D20*
%TO.N,/CHRGR+*%
X27787600Y24282400D02*
X21818600Y24282400D01*
X28702000Y23368000D02*
X27787600Y24282400D01*
%TO.N,RAW*%
X28168600Y26924000D02*
X27152600Y27940000D01*
X27152600Y27940000D02*
X27152600Y30835600D01*
X17297400Y8610600D02*
X17297400Y5918200D01*
X18135600Y9448800D02*
X17297400Y8610600D01*
X29133800Y26924000D02*
X28168600Y26924000D01*
X29438600Y9448800D02*
X18135600Y9448800D01*
%TD*%
%TA.AperFunction,Conductor*%
%TO.N,GND*%
G36*
X34003696Y50199184D02*
G01*
X34007142Y50199123D01*
X34139378Y50196765D01*
X34151879Y50195758D01*
X34421352Y50157014D01*
X34435378Y50153963D01*
X34695717Y50077521D01*
X34709162Y50072506D01*
X34955982Y49959787D01*
X34968569Y49952914D01*
X35196832Y49806218D01*
X35208319Y49797619D01*
X35413389Y49619926D01*
X35423525Y49609790D01*
X35601216Y49404723D01*
X35609817Y49393233D01*
X35756510Y49164975D01*
X35763389Y49152377D01*
X35876104Y48905565D01*
X35881120Y48892116D01*
X35957562Y48631778D01*
X35960613Y48617753D01*
X35999356Y48348292D01*
X36000364Y48335769D01*
X36002784Y48200098D01*
X36002800Y48198304D01*
X36002800Y1998097D01*
X36002784Y1996303D01*
X36000364Y1860632D01*
X35999356Y1848109D01*
X35960613Y1578648D01*
X35957562Y1564623D01*
X35881120Y1304285D01*
X35876104Y1290836D01*
X35763389Y1044024D01*
X35756510Y1031426D01*
X35609817Y803168D01*
X35601216Y791678D01*
X35423532Y586618D01*
X35413382Y576468D01*
X35208322Y398784D01*
X35196832Y390183D01*
X34968574Y243490D01*
X34955976Y236611D01*
X34709164Y123896D01*
X34695715Y118880D01*
X34435377Y42438D01*
X34421352Y39387D01*
X34151891Y644D01*
X34139368Y-364D01*
X34003697Y-2784D01*
X34001903Y-2800D01*
X2003695Y-2800D01*
X2001901Y-2784D01*
X1866230Y-364D01*
X1853707Y644D01*
X1584246Y39387D01*
X1570221Y42438D01*
X1309883Y118880D01*
X1296434Y123896D01*
X1049622Y236611D01*
X1037024Y243490D01*
X808767Y390183D01*
X797277Y398784D01*
X592210Y576475D01*
X582074Y586611D01*
X404381Y791681D01*
X395782Y803168D01*
X249086Y1031430D01*
X242213Y1044017D01*
X129494Y1290837D01*
X124479Y1304284D01*
X112170Y1346203D01*
X8859028Y1346203D01*
X8859028Y1346198D01*
X8879190Y1218897D01*
X8879191Y1218894D01*
X8937708Y1104049D01*
X9028849Y1012908D01*
X9143694Y954391D01*
X9194616Y946326D01*
X9270997Y934228D01*
X9271000Y934228D01*
X9271003Y934228D01*
X9334653Y944310D01*
X9398306Y954391D01*
X9513151Y1012908D01*
X9604292Y1104049D01*
X9662809Y1218894D01*
X9682972Y1346200D01*
X9678949Y1371598D01*
X9678948Y1371603D01*
X26639028Y1371603D01*
X26639028Y1371598D01*
X26659190Y1244297D01*
X26659191Y1244294D01*
X26672131Y1218897D01*
X26717708Y1129449D01*
X26808849Y1038308D01*
X26923694Y979791D01*
X26974616Y971726D01*
X27050997Y959628D01*
X27051000Y959628D01*
X27051003Y959628D01*
X27114653Y969710D01*
X27178306Y979791D01*
X27293151Y1038308D01*
X27384292Y1129449D01*
X27442809Y1244294D01*
X27462972Y1371600D01*
X27442809Y1498906D01*
X27384292Y1613751D01*
X27293151Y1704892D01*
X27293150Y1704893D01*
X27178306Y1763409D01*
X27178303Y1763410D01*
X27051003Y1783572D01*
X27050997Y1783572D01*
X26923696Y1763410D01*
X26923693Y1763409D01*
X26808849Y1704893D01*
X26717707Y1613751D01*
X26659191Y1498907D01*
X26659190Y1498904D01*
X26639028Y1371603D01*
X9678948Y1371603D01*
X9662809Y1473504D01*
X9662809Y1473506D01*
X9604292Y1588351D01*
X9513151Y1679492D01*
X9513150Y1679493D01*
X9398306Y1738009D01*
X9398303Y1738010D01*
X9271003Y1758172D01*
X9270997Y1758172D01*
X9143696Y1738010D01*
X9143693Y1738009D01*
X9028849Y1679493D01*
X8937707Y1588351D01*
X8879191Y1473507D01*
X8879190Y1473504D01*
X8859028Y1346203D01*
X112170Y1346203D01*
X68685Y1494301D01*
X48037Y1564622D01*
X44986Y1578647D01*
X39939Y1613751D01*
X6242Y1848120D01*
X5235Y1860621D01*
X2816Y1996303D01*
X2800Y1998095D01*
X2800Y3115486D01*
X16505700Y3115486D01*
X16505700Y2878915D01*
X16542706Y2645275D01*
X16542709Y2645261D01*
X16615807Y2420287D01*
X16723200Y2209518D01*
X16723205Y2209509D01*
X16792728Y2113818D01*
X16862250Y2018129D01*
X16862252Y2018127D01*
X17029527Y1850852D01*
X17220909Y1711805D01*
X17248340Y1697828D01*
X17431686Y1604408D01*
X17656660Y1531310D01*
X17656662Y1531310D01*
X17656670Y1531307D01*
X17890314Y1494301D01*
X17890316Y1494300D01*
X17890319Y1494300D01*
X18126884Y1494300D01*
X18126884Y1494301D01*
X18360530Y1531307D01*
X18585513Y1604408D01*
X18796291Y1711805D01*
X18987673Y1850852D01*
X19154948Y2018127D01*
X19293995Y2209509D01*
X19401392Y2420287D01*
X19474493Y2645270D01*
X19511500Y2878919D01*
X19511500Y3115481D01*
X19511500Y3115485D01*
X19511499Y3115486D01*
X19474493Y3349130D01*
X19401392Y3574113D01*
X19401392Y3574114D01*
X19293999Y3784883D01*
X19293995Y3784891D01*
X19154948Y3976273D01*
X18987673Y4143548D01*
X18987671Y4143550D01*
X18852018Y4242107D01*
X18796291Y4282595D01*
X18796285Y4282598D01*
X18796282Y4282600D01*
X18585513Y4389993D01*
X18360539Y4463091D01*
X18360525Y4463094D01*
X18126885Y4500100D01*
X18126881Y4500100D01*
X17890319Y4500100D01*
X17890315Y4500100D01*
X17656674Y4463094D01*
X17656660Y4463091D01*
X17431686Y4389993D01*
X17220917Y4282600D01*
X17220906Y4282593D01*
X17029528Y4143550D01*
X16862250Y3976272D01*
X16723207Y3784894D01*
X16723200Y3784883D01*
X16615807Y3574114D01*
X16542709Y3349140D01*
X16542706Y3349126D01*
X16505700Y3115486D01*
X2800Y3115486D01*
X2800Y4114803D01*
X7258828Y4114803D01*
X7258828Y4114798D01*
X7278990Y3987497D01*
X7278991Y3987494D01*
X7337508Y3872649D01*
X7428649Y3781508D01*
X7543494Y3722991D01*
X7594416Y3714926D01*
X7670797Y3702828D01*
X7670800Y3702828D01*
X7670803Y3702828D01*
X7734453Y3712910D01*
X7798106Y3722991D01*
X7912951Y3781508D01*
X8004092Y3872649D01*
X8062609Y3987494D01*
X8082772Y4114800D01*
X8062609Y4242106D01*
X8004092Y4356951D01*
X7974476Y4386567D01*
X7946251Y4441961D01*
X7955976Y4503370D01*
X7974474Y4528832D01*
X8054892Y4609249D01*
X8113409Y4724094D01*
X8133572Y4851400D01*
X8113409Y4978706D01*
X8054892Y5093551D01*
X7963751Y5184692D01*
X7963750Y5184693D01*
X7848906Y5243209D01*
X7848903Y5243210D01*
X7721603Y5263372D01*
X7721597Y5263372D01*
X7594296Y5243210D01*
X7594293Y5243209D01*
X7479449Y5184693D01*
X7388307Y5093551D01*
X7329791Y4978707D01*
X7329790Y4978704D01*
X7309628Y4851403D01*
X7309628Y4851398D01*
X7329790Y4724097D01*
X7329791Y4724094D01*
X7388307Y4609250D01*
X7417922Y4579635D01*
X7446148Y4524237D01*
X7436422Y4462829D01*
X7417922Y4437365D01*
X7337507Y4356951D01*
X7278991Y4242107D01*
X7278990Y4242104D01*
X7258828Y4114803D01*
X2800Y4114803D01*
X2800Y5334003D01*
X27807428Y5334003D01*
X27807428Y5333998D01*
X27827590Y5206697D01*
X27827591Y5206694D01*
X27885240Y5093551D01*
X27886108Y5091849D01*
X27977249Y5000708D01*
X28092094Y4942191D01*
X28143016Y4934126D01*
X28219397Y4922028D01*
X28219400Y4922028D01*
X28219403Y4922028D01*
X28283053Y4932110D01*
X28346706Y4942191D01*
X28461551Y5000708D01*
X28552692Y5091849D01*
X28611209Y5206694D01*
X28631372Y5334000D01*
X28611209Y5461306D01*
X28552692Y5576151D01*
X28461551Y5667292D01*
X28461550Y5667293D01*
X28346706Y5725809D01*
X28346703Y5725810D01*
X28219403Y5745972D01*
X28219397Y5745972D01*
X28092096Y5725810D01*
X28092093Y5725809D01*
X27977249Y5667293D01*
X27886107Y5576151D01*
X27827591Y5461307D01*
X27827590Y5461304D01*
X27807428Y5334003D01*
X2800Y5334003D01*
X2800Y5918203D01*
X16885428Y5918203D01*
X16885428Y5918198D01*
X16905590Y5790897D01*
X16905591Y5790894D01*
X16938753Y5725809D01*
X16964108Y5676049D01*
X17055249Y5584908D01*
X17170094Y5526391D01*
X17221016Y5518326D01*
X17297397Y5506228D01*
X17297400Y5506228D01*
X17297403Y5506228D01*
X17361053Y5516310D01*
X17424706Y5526391D01*
X17539551Y5584908D01*
X17630692Y5676049D01*
X17689209Y5790894D01*
X17709372Y5918200D01*
X17689209Y6045506D01*
X17630692Y6160351D01*
X17630691Y6160353D01*
X17626039Y6166756D01*
X17627580Y6167876D01*
X17603939Y6214276D01*
X17602700Y6230013D01*
X17602700Y6502403D01*
X26893028Y6502403D01*
X26893028Y6502398D01*
X26913190Y6375097D01*
X26913191Y6375094D01*
X26971708Y6260249D01*
X27062849Y6169108D01*
X27177694Y6110591D01*
X27228616Y6102526D01*
X27304997Y6090428D01*
X27305000Y6090428D01*
X27305003Y6090428D01*
X27368653Y6100510D01*
X27432306Y6110591D01*
X27547151Y6169108D01*
X27638292Y6260249D01*
X27696809Y6375094D01*
X27716972Y6502400D01*
X27696809Y6629706D01*
X27638292Y6744551D01*
X27547151Y6835692D01*
X27547150Y6835693D01*
X27432306Y6894209D01*
X27432303Y6894210D01*
X27305003Y6914372D01*
X27304997Y6914372D01*
X27177696Y6894210D01*
X27177693Y6894209D01*
X27062849Y6835693D01*
X26971707Y6744551D01*
X26913191Y6629707D01*
X26913190Y6629704D01*
X26893028Y6502403D01*
X17602700Y6502403D01*
X17602700Y8442471D01*
X17621913Y8501602D01*
X17632165Y8513606D01*
X18232595Y9114035D01*
X18287993Y9142261D01*
X18303730Y9143500D01*
X29126787Y9143500D01*
X29185918Y9124287D01*
X29194767Y9116729D01*
X29196447Y9115509D01*
X29196449Y9115508D01*
X29311294Y9056991D01*
X29362216Y9048926D01*
X29438597Y9036828D01*
X29438600Y9036828D01*
X29438603Y9036828D01*
X29502253Y9046910D01*
X29565906Y9056991D01*
X29680751Y9115508D01*
X29771892Y9206649D01*
X29830409Y9321494D01*
X29850572Y9448800D01*
X29830409Y9576106D01*
X29771892Y9690951D01*
X29680751Y9782092D01*
X29680750Y9782093D01*
X29565906Y9840609D01*
X29565903Y9840610D01*
X29438603Y9860772D01*
X29438597Y9860772D01*
X29311296Y9840610D01*
X29311293Y9840609D01*
X29196447Y9782092D01*
X29190044Y9777439D01*
X29188924Y9778981D01*
X29142524Y9755339D01*
X29126787Y9754100D01*
X18095402Y9754100D01*
X18017765Y9733297D01*
X18017756Y9733293D01*
X17948143Y9693104D01*
X17948142Y9693103D01*
X17053100Y8798059D01*
X17053098Y8798057D01*
X17017963Y8737200D01*
X17017962Y8737199D01*
X17012907Y8728446D01*
X16992100Y8650796D01*
X16992100Y6230013D01*
X16972887Y6170882D01*
X16965328Y6162033D01*
X16964108Y6160353D01*
X16905591Y6045507D01*
X16905590Y6045504D01*
X16885428Y5918203D01*
X2800Y5918203D01*
X2800Y8636600D01*
X22013Y8695731D01*
X72313Y8732276D01*
X103400Y8737200D01*
X5024800Y8737200D01*
X5024800Y12645905D01*
X13111100Y12645905D01*
X13111100Y11817295D01*
X13136191Y11691156D01*
X13185408Y11572336D01*
X13221375Y11518508D01*
X13256858Y11465403D01*
X13256860Y11465401D01*
X13347801Y11374460D01*
X13454736Y11303008D01*
X13573556Y11253791D01*
X13699695Y11228700D01*
X13699696Y11228700D01*
X13828304Y11228700D01*
X13828305Y11228700D01*
X13954444Y11253791D01*
X14073264Y11303008D01*
X14180199Y11374460D01*
X14271140Y11465401D01*
X14342592Y11572336D01*
X14391809Y11691156D01*
X14416900Y11817295D01*
X14416900Y12645905D01*
X21651100Y12645905D01*
X21651100Y11817295D01*
X21676191Y11691156D01*
X21725408Y11572336D01*
X21761375Y11518508D01*
X21796858Y11465403D01*
X21796860Y11465401D01*
X21887801Y11374460D01*
X21994736Y11303008D01*
X22113556Y11253791D01*
X22239695Y11228700D01*
X22239696Y11228700D01*
X22368304Y11228700D01*
X22368305Y11228700D01*
X22494444Y11253791D01*
X22613264Y11303008D01*
X22720199Y11374460D01*
X22811140Y11465401D01*
X22882592Y11572336D01*
X22931809Y11691156D01*
X22956900Y11817295D01*
X22956900Y12645905D01*
X22931809Y12772044D01*
X22882592Y12890864D01*
X22811140Y12997799D01*
X22720199Y13088740D01*
X22720197Y13088742D01*
X22667092Y13124225D01*
X22613264Y13160192D01*
X22613261Y13160194D01*
X22613260Y13160194D01*
X22494445Y13209409D01*
X22431374Y13221955D01*
X22368305Y13234500D01*
X22239695Y13234500D01*
X22197648Y13226137D01*
X22113554Y13209409D01*
X21994739Y13160194D01*
X21887802Y13088742D01*
X21887801Y13088740D01*
X21796860Y12997799D01*
X21796858Y12997798D01*
X21725406Y12890861D01*
X21676191Y12772046D01*
X21676191Y12772044D01*
X21651100Y12645905D01*
X14416900Y12645905D01*
X14391809Y12772044D01*
X14342592Y12890864D01*
X14271140Y12997799D01*
X14180199Y13088740D01*
X14180197Y13088742D01*
X14127092Y13124225D01*
X14073264Y13160192D01*
X14073261Y13160194D01*
X14073260Y13160194D01*
X13954445Y13209409D01*
X13891374Y13221955D01*
X13828305Y13234500D01*
X13699695Y13234500D01*
X13657648Y13226137D01*
X13573554Y13209409D01*
X13454739Y13160194D01*
X13347802Y13088742D01*
X13347801Y13088740D01*
X13256860Y12997799D01*
X13256858Y12997798D01*
X13185406Y12890861D01*
X13136191Y12772046D01*
X13136191Y12772044D01*
X13111100Y12645905D01*
X5024800Y12645905D01*
X5024800Y15087603D01*
X10840228Y15087603D01*
X10840228Y15087598D01*
X10860390Y14960297D01*
X10860391Y14960294D01*
X10918908Y14845449D01*
X11010049Y14754308D01*
X11124894Y14695791D01*
X11175816Y14687726D01*
X11252197Y14675628D01*
X11252200Y14675628D01*
X11252203Y14675628D01*
X11315853Y14685710D01*
X11379506Y14695791D01*
X11494351Y14754308D01*
X11585492Y14845449D01*
X11644009Y14960294D01*
X11664172Y15087600D01*
X11644009Y15214906D01*
X11585492Y15329751D01*
X11494351Y15420892D01*
X11494350Y15420893D01*
X11379506Y15479409D01*
X11379503Y15479410D01*
X11252203Y15499572D01*
X11252197Y15499572D01*
X11124896Y15479410D01*
X11124893Y15479409D01*
X11010049Y15420893D01*
X10918907Y15329751D01*
X10860391Y15214907D01*
X10860390Y15214904D01*
X10840228Y15087603D01*
X5024800Y15087603D01*
X5024800Y17195803D01*
X9087628Y17195803D01*
X9087628Y17195798D01*
X9107790Y17068497D01*
X9107791Y17068494D01*
X9166308Y16953649D01*
X9257449Y16862508D01*
X9372294Y16803991D01*
X9423216Y16795926D01*
X9499597Y16783828D01*
X9499600Y16783828D01*
X9499603Y16783828D01*
X9563253Y16793910D01*
X9626906Y16803991D01*
X9741751Y16862508D01*
X9832892Y16953649D01*
X9891409Y17068494D01*
X9911572Y17195800D01*
X9891409Y17323106D01*
X9832892Y17437951D01*
X9741751Y17529092D01*
X9741750Y17529093D01*
X9626906Y17587609D01*
X9626903Y17587610D01*
X9499603Y17607772D01*
X9499597Y17607772D01*
X9372296Y17587610D01*
X9372293Y17587609D01*
X9257449Y17529093D01*
X9166307Y17437951D01*
X9107791Y17323107D01*
X9107790Y17323104D01*
X9087628Y17195803D01*
X5024800Y17195803D01*
X5024800Y19964403D01*
X10332228Y19964403D01*
X10332228Y19964398D01*
X10352390Y19837097D01*
X10352391Y19837094D01*
X10410908Y19722249D01*
X10502049Y19631108D01*
X10616894Y19572591D01*
X10667816Y19564526D01*
X10744197Y19552428D01*
X10744200Y19552428D01*
X10744203Y19552428D01*
X10807853Y19562510D01*
X10871506Y19572591D01*
X10986351Y19631108D01*
X11077492Y19722249D01*
X11136009Y19837094D01*
X11156172Y19964400D01*
X11136009Y20091706D01*
X11077492Y20206551D01*
X10986351Y20297692D01*
X10986350Y20297693D01*
X10871506Y20356209D01*
X10871503Y20356210D01*
X10744203Y20376372D01*
X10744197Y20376372D01*
X10616896Y20356210D01*
X10616893Y20356209D01*
X10502049Y20297693D01*
X10410907Y20206551D01*
X10352391Y20091707D01*
X10352390Y20091704D01*
X10332228Y19964403D01*
X5024800Y19964403D01*
X5024800Y21073705D01*
X33205300Y21073705D01*
X33205300Y20945095D01*
X33230391Y20818956D01*
X33279608Y20700136D01*
X33315575Y20646308D01*
X33351058Y20593203D01*
X33351060Y20593201D01*
X33442001Y20502260D01*
X33548936Y20430808D01*
X33667756Y20381591D01*
X33793895Y20356500D01*
X33793896Y20356500D01*
X33922504Y20356500D01*
X33922505Y20356500D01*
X34048644Y20381591D01*
X34167464Y20430808D01*
X34274399Y20502260D01*
X34365340Y20593201D01*
X34436792Y20700136D01*
X34486009Y20818956D01*
X34511100Y20945095D01*
X34511100Y21073705D01*
X34486009Y21199844D01*
X34436792Y21318664D01*
X34365340Y21425599D01*
X34274399Y21516540D01*
X34274397Y21516542D01*
X34218648Y21553792D01*
X34167464Y21587992D01*
X34167461Y21587994D01*
X34167460Y21587994D01*
X34048645Y21637209D01*
X33985574Y21649755D01*
X33922505Y21662300D01*
X33793895Y21662300D01*
X33751848Y21653937D01*
X33667754Y21637209D01*
X33548939Y21587994D01*
X33442002Y21516542D01*
X33442001Y21516540D01*
X33351060Y21425599D01*
X33351058Y21425598D01*
X33279606Y21318661D01*
X33230391Y21199846D01*
X33230391Y21199844D01*
X33205300Y21073705D01*
X5024800Y21073705D01*
X5024800Y22783803D01*
X10078228Y22783803D01*
X10078228Y22783798D01*
X10098390Y22656497D01*
X10098391Y22656494D01*
X10126064Y22602182D01*
X10156908Y22541649D01*
X10248049Y22450508D01*
X10362894Y22391991D01*
X10413816Y22383926D01*
X10490197Y22371828D01*
X10490200Y22371828D01*
X10490203Y22371828D01*
X10553853Y22381910D01*
X10617506Y22391991D01*
X10691092Y22429486D01*
X10752498Y22439212D01*
X10807896Y22410986D01*
X10905768Y22313114D01*
X10933994Y22257716D01*
X10928697Y22206308D01*
X10918416Y22179199D01*
X10914725Y22148800D01*
X10899305Y22021800D01*
X10918416Y21864403D01*
X10974640Y21716154D01*
X11064708Y21585668D01*
X11183387Y21480528D01*
X11323778Y21406844D01*
X11477724Y21368900D01*
X11477728Y21368900D01*
X11636272Y21368900D01*
X11636276Y21368900D01*
X11790222Y21406844D01*
X11930613Y21480528D01*
X12049292Y21585668D01*
X12139360Y21716154D01*
X12195584Y21864403D01*
X12214695Y22021800D01*
X12199274Y22148803D01*
X13558028Y22148803D01*
X13558028Y22148798D01*
X13578190Y22021497D01*
X13578191Y22021494D01*
X13627791Y21924148D01*
X13636708Y21906649D01*
X13727849Y21815508D01*
X13842694Y21756991D01*
X13893616Y21748926D01*
X13969997Y21736828D01*
X13970000Y21736828D01*
X13970003Y21736828D01*
X14033653Y21746910D01*
X14097306Y21756991D01*
X14212151Y21815508D01*
X14292565Y21895922D01*
X14347963Y21924148D01*
X14409371Y21914422D01*
X14434835Y21895922D01*
X14515249Y21815508D01*
X14630094Y21756991D01*
X14681016Y21748926D01*
X14757397Y21736828D01*
X14757400Y21736828D01*
X14757403Y21736828D01*
X14821053Y21746910D01*
X14884706Y21756991D01*
X14999551Y21815508D01*
X15090692Y21906649D01*
X15149209Y22021494D01*
X15169372Y22148800D01*
X15164557Y22179199D01*
X15157274Y22225184D01*
X15149209Y22276106D01*
X15090692Y22390951D01*
X15041365Y22440278D01*
X15013139Y22495676D01*
X15011900Y22511413D01*
X15011900Y22845019D01*
X15031113Y22904150D01*
X15041365Y22916154D01*
X15234646Y23109435D01*
X15290044Y23137661D01*
X15305781Y23138900D01*
X17327152Y23138900D01*
X17386283Y23119687D01*
X17422828Y23069387D01*
X17422828Y23007213D01*
X17416787Y22992628D01*
X17388190Y22936507D01*
X17388190Y22936504D01*
X17368028Y22809203D01*
X17368028Y22809198D01*
X17388190Y22681897D01*
X17388191Y22681894D01*
X17428806Y22602182D01*
X17446708Y22567049D01*
X17537849Y22475908D01*
X17542558Y22473509D01*
X17586523Y22429547D01*
X17596252Y22368139D01*
X17568028Y22312740D01*
X17542564Y22294238D01*
X17512449Y22278893D01*
X17421307Y22187751D01*
X17362791Y22072907D01*
X17362790Y22072904D01*
X17342628Y21945603D01*
X17342628Y21945598D01*
X17362790Y21818297D01*
X17362791Y21818294D01*
X17394026Y21756991D01*
X17421308Y21703449D01*
X17512449Y21612308D01*
X17627294Y21553791D01*
X17678216Y21545726D01*
X17754597Y21533628D01*
X17754600Y21533628D01*
X17754603Y21533628D01*
X17818253Y21543710D01*
X17881906Y21553791D01*
X17996751Y21612308D01*
X18087892Y21703449D01*
X18146409Y21818294D01*
X18161634Y21914422D01*
X18166572Y21945598D01*
X18166572Y21945603D01*
X18146409Y22072904D01*
X18146409Y22072906D01*
X18087892Y22187751D01*
X17996751Y22278892D01*
X17992037Y22281294D01*
X17948074Y22325257D01*
X17938347Y22386666D01*
X17966574Y22442063D01*
X17992038Y22460564D01*
X18022149Y22475907D01*
X18022148Y22475907D01*
X18022151Y22475908D01*
X18113292Y22567049D01*
X18171809Y22681894D01*
X18191972Y22809200D01*
X18171809Y22936506D01*
X18113292Y23051351D01*
X18022151Y23142492D01*
X18003458Y23152017D01*
X17959496Y23195979D01*
X17949769Y23257388D01*
X17977996Y23312785D01*
X17977996Y23312786D01*
X19507399Y24842190D01*
X19562797Y24870415D01*
X19624205Y24860689D01*
X19668169Y24816725D01*
X19677895Y24755317D01*
X19674212Y24739972D01*
X19674190Y24739906D01*
X19654028Y24612603D01*
X19654028Y24612598D01*
X19674190Y24485297D01*
X19674191Y24485294D01*
X19732708Y24370449D01*
X19823849Y24279308D01*
X19938694Y24220791D01*
X19989616Y24212726D01*
X20065997Y24200628D01*
X20066000Y24200628D01*
X20066003Y24200628D01*
X20129653Y24210710D01*
X20193306Y24220791D01*
X20308151Y24279308D01*
X20311246Y24282403D01*
X21406628Y24282403D01*
X21406628Y24282398D01*
X21426790Y24155097D01*
X21426791Y24155094D01*
X21485308Y24040249D01*
X21576449Y23949108D01*
X21691294Y23890591D01*
X21742216Y23882526D01*
X21818597Y23870428D01*
X21818600Y23870428D01*
X21818603Y23870428D01*
X21882253Y23880510D01*
X21945906Y23890591D01*
X22060751Y23949108D01*
X22060752Y23949109D01*
X22067156Y23953761D01*
X22068275Y23952220D01*
X22114676Y23975861D01*
X22130413Y23977100D01*
X27619471Y23977100D01*
X27678602Y23957887D01*
X27690606Y23947635D01*
X28270638Y23367602D01*
X28298864Y23312205D01*
X28310190Y23240695D01*
X28360228Y23142492D01*
X28368708Y23125849D01*
X28459849Y23034708D01*
X28574694Y22976191D01*
X28625616Y22968126D01*
X28701997Y22956028D01*
X28702000Y22956028D01*
X28702003Y22956028D01*
X28765653Y22966110D01*
X28829306Y22976191D01*
X28944151Y23034708D01*
X29035292Y23125849D01*
X29093809Y23240694D01*
X29113972Y23368000D01*
X29093809Y23495306D01*
X29035292Y23610151D01*
X28944151Y23701292D01*
X28944150Y23701293D01*
X28829305Y23759810D01*
X28757795Y23771136D01*
X28702398Y23799362D01*
X28524660Y23977100D01*
X27975059Y24526700D01*
X27940250Y24546797D01*
X27905442Y24566894D01*
X27827795Y24587700D01*
X27827793Y24587700D01*
X22130413Y24587700D01*
X22071282Y24606913D01*
X22062432Y24614472D01*
X22060752Y24615692D01*
X21945906Y24674209D01*
X21945903Y24674210D01*
X21818603Y24694372D01*
X21818597Y24694372D01*
X21691296Y24674210D01*
X21691293Y24674209D01*
X21576449Y24615693D01*
X21485307Y24524551D01*
X21426791Y24409707D01*
X21426790Y24409704D01*
X21406628Y24282403D01*
X20311246Y24282403D01*
X20399292Y24370449D01*
X20457809Y24485294D01*
X20474028Y24587700D01*
X20477972Y24612598D01*
X20477972Y24612603D01*
X20457809Y24739904D01*
X20457809Y24739906D01*
X20399292Y24854751D01*
X20308151Y24945892D01*
X20308150Y24945893D01*
X20193306Y25004409D01*
X20193303Y25004410D01*
X20066003Y25024572D01*
X20065997Y25024572D01*
X19938690Y25004410D01*
X19938623Y25004387D01*
X19938551Y25004388D01*
X19930874Y25003171D01*
X19930681Y25004388D01*
X19876449Y25004393D01*
X19826152Y25040942D01*
X19806945Y25100075D01*
X19826163Y25159205D01*
X19836402Y25171193D01*
X20399212Y25734003D01*
X20399215Y25734004D01*
X20413362Y25748151D01*
X20413363Y25748151D01*
X20484955Y25819743D01*
X20512351Y25885886D01*
X20523700Y25913282D01*
X20523700Y26014529D01*
X20523700Y30835603D01*
X26740628Y30835603D01*
X26740628Y30835598D01*
X26760790Y30708297D01*
X26760791Y30708294D01*
X26819308Y30593448D01*
X26823961Y30587044D01*
X26822419Y30585925D01*
X26846061Y30539524D01*
X26847300Y30523787D01*
X26847300Y27899805D01*
X26868106Y27822158D01*
X26877516Y27805860D01*
X26908300Y27752541D01*
X26908302Y27752539D01*
X27981140Y26679701D01*
X27981139Y26679701D01*
X27981141Y26679700D01*
X28042802Y26644100D01*
X28050759Y26639506D01*
X28128407Y26618700D01*
X28821987Y26618700D01*
X28881118Y26599487D01*
X28889967Y26591929D01*
X28891647Y26590709D01*
X28891649Y26590708D01*
X29006494Y26532191D01*
X29057416Y26524126D01*
X29133797Y26512028D01*
X29133800Y26512028D01*
X29133803Y26512028D01*
X29197453Y26522110D01*
X29261106Y26532191D01*
X29375951Y26590708D01*
X29467092Y26681849D01*
X29525609Y26796694D01*
X29545772Y26924000D01*
X29539763Y26961938D01*
X29525609Y27051304D01*
X29525609Y27051306D01*
X29467092Y27166151D01*
X29375951Y27257292D01*
X29375950Y27257293D01*
X29261106Y27315809D01*
X29261103Y27315810D01*
X29133803Y27335972D01*
X29133797Y27335972D01*
X29006496Y27315810D01*
X29006493Y27315809D01*
X28891647Y27257292D01*
X28885244Y27252639D01*
X28884124Y27254181D01*
X28837724Y27230539D01*
X28821987Y27229300D01*
X28336729Y27229300D01*
X28277598Y27248513D01*
X28265594Y27258765D01*
X27650654Y27873705D01*
X33205300Y27873705D01*
X33205300Y27745095D01*
X33217845Y27682026D01*
X33230391Y27618955D01*
X33279606Y27500140D01*
X33279608Y27500136D01*
X33315575Y27446308D01*
X33351058Y27393203D01*
X33442002Y27302259D01*
X33458251Y27291402D01*
X33548936Y27230808D01*
X33667756Y27181591D01*
X33793895Y27156500D01*
X33793896Y27156500D01*
X33922504Y27156500D01*
X33922505Y27156500D01*
X34048644Y27181591D01*
X34167464Y27230808D01*
X34274399Y27302260D01*
X34365340Y27393201D01*
X34436792Y27500136D01*
X34486009Y27618956D01*
X34511100Y27745095D01*
X34511100Y27873705D01*
X34486009Y27999844D01*
X34436792Y28118664D01*
X34373205Y28213828D01*
X34365341Y28225598D01*
X34274397Y28316542D01*
X34221292Y28352025D01*
X34167464Y28387992D01*
X34167461Y28387994D01*
X34167460Y28387994D01*
X34048645Y28437209D01*
X33985574Y28449755D01*
X33922505Y28462300D01*
X33793895Y28462300D01*
X33751848Y28453937D01*
X33667754Y28437209D01*
X33548939Y28387994D01*
X33442002Y28316542D01*
X33442001Y28316540D01*
X33351060Y28225599D01*
X33351058Y28225598D01*
X33279606Y28118661D01*
X33230391Y27999846D01*
X33213495Y27914904D01*
X33205300Y27873705D01*
X27650654Y27873705D01*
X27487365Y28036994D01*
X27459139Y28092392D01*
X27457900Y28108129D01*
X27457900Y30523787D01*
X27477113Y30582918D01*
X27484671Y30591768D01*
X27485891Y30593448D01*
X27485892Y30593449D01*
X27544409Y30708294D01*
X27564572Y30835600D01*
X27544409Y30962906D01*
X27485892Y31077751D01*
X27394751Y31168892D01*
X27394750Y31168893D01*
X27279906Y31227409D01*
X27279903Y31227410D01*
X27152603Y31247572D01*
X27152597Y31247572D01*
X27025296Y31227410D01*
X27025293Y31227409D01*
X26910449Y31168893D01*
X26819307Y31077751D01*
X26760791Y30962907D01*
X26760790Y30962904D01*
X26740628Y30835603D01*
X20523700Y30835603D01*
X20523700Y33562978D01*
X24364000Y33562978D01*
X24364000Y33413000D01*
X25458670Y33413000D01*
X25438925Y33393255D01*
X25389556Y33307745D01*
X25364000Y33212370D01*
X25364000Y33113630D01*
X25389556Y33018255D01*
X25438925Y32932745D01*
X25458670Y32913000D01*
X24364001Y32913000D01*
X24364001Y32763024D01*
X24374493Y32660307D01*
X24429641Y32493879D01*
X24521684Y32344656D01*
X24521685Y32344654D01*
X24645653Y32220686D01*
X24645655Y32220685D01*
X24794878Y32128642D01*
X24961306Y32073494D01*
X25064022Y32063001D01*
X25489000Y32063001D01*
X25489000Y32882670D01*
X25508745Y32862925D01*
X25594255Y32813556D01*
X25689630Y32788000D01*
X25788370Y32788000D01*
X25883745Y32813556D01*
X25969255Y32862925D01*
X25989000Y32882670D01*
X25989000Y32063001D01*
X26413976Y32063001D01*
X26516693Y32073494D01*
X26683121Y32128642D01*
X26832344Y32220685D01*
X26832346Y32220686D01*
X26956314Y32344654D01*
X26956315Y32344656D01*
X27048358Y32493879D01*
X27103506Y32660307D01*
X27114000Y32763023D01*
X27114000Y32913000D01*
X26019330Y32913000D01*
X26039075Y32932745D01*
X26088444Y33018255D01*
X26114000Y33113630D01*
X26114000Y33212370D01*
X26088444Y33307745D01*
X26039075Y33393255D01*
X26019330Y33413000D01*
X27113999Y33413000D01*
X27113999Y33562977D01*
X27103506Y33665694D01*
X27048358Y33832122D01*
X26956315Y33981345D01*
X26956314Y33981347D01*
X26832346Y34105315D01*
X26832344Y34105316D01*
X26683121Y34197359D01*
X26516693Y34252507D01*
X26413977Y34263000D01*
X26314380Y34263000D01*
X26255249Y34282213D01*
X26218704Y34332513D01*
X26218704Y34394687D01*
X26255249Y34444987D01*
X26275879Y34456541D01*
X26370632Y34495789D01*
X26493946Y34578184D01*
X26598816Y34683054D01*
X26681211Y34806368D01*
X26737967Y34943387D01*
X26766900Y35088846D01*
X26766900Y35237154D01*
X26737967Y35382613D01*
X26681211Y35519632D01*
X26598816Y35642946D01*
X26493946Y35747816D01*
X26413383Y35801646D01*
X26370636Y35830209D01*
X26370628Y35830213D01*
X26323614Y35849687D01*
X26233613Y35886967D01*
X26233609Y35886968D01*
X26233612Y35886968D01*
X26117086Y35910146D01*
X26088154Y35915900D01*
X25389846Y35915900D01*
X25360914Y35910146D01*
X25244388Y35886968D01*
X25107371Y35830213D01*
X25107363Y35830209D01*
X25008515Y35764161D01*
X24984054Y35747816D01*
X24984053Y35747815D01*
X24984052Y35747815D01*
X24879185Y35642948D01*
X24879185Y35642947D01*
X24796791Y35519637D01*
X24796787Y35519629D01*
X24740032Y35382612D01*
X24711100Y35237154D01*
X24711100Y35088847D01*
X24740032Y34943389D01*
X24796787Y34806372D01*
X24796791Y34806364D01*
X24829926Y34756774D01*
X24879184Y34683054D01*
X24984054Y34578184D01*
X25065520Y34523751D01*
X25107363Y34495792D01*
X25107365Y34495791D01*
X25107368Y34495789D01*
X25202120Y34456541D01*
X25249396Y34416164D01*
X25263911Y34355707D01*
X25240118Y34298266D01*
X25187106Y34265780D01*
X25163622Y34263000D01*
X25064023Y34263000D01*
X24961306Y34252507D01*
X24794878Y34197359D01*
X24645655Y34105316D01*
X24645653Y34105315D01*
X24521685Y33981347D01*
X24521684Y33981345D01*
X24429641Y33832122D01*
X24374493Y33665694D01*
X24364000Y33562978D01*
X20523700Y33562978D01*
X20523700Y33716218D01*
X20542913Y33775349D01*
X20553165Y33787353D01*
X21448866Y34683054D01*
X22364555Y35598743D01*
X22403301Y35692283D01*
X22403301Y35793529D01*
X22403301Y35801632D01*
X22403300Y35801646D01*
X22403300Y38912803D01*
X23311628Y38912803D01*
X23311628Y38912798D01*
X23331790Y38785497D01*
X23331791Y38785494D01*
X23380561Y38689777D01*
X23390308Y38670649D01*
X23481449Y38579508D01*
X23596294Y38520991D01*
X23647216Y38512926D01*
X23723597Y38500828D01*
X23723600Y38500828D01*
X23723603Y38500828D01*
X23787253Y38510910D01*
X23850906Y38520991D01*
X23965751Y38579508D01*
X24056892Y38670649D01*
X24115409Y38785494D01*
X24127527Y38862003D01*
X30550628Y38862003D01*
X30550628Y38861998D01*
X30570790Y38734697D01*
X30570791Y38734694D01*
X30626587Y38625188D01*
X30629308Y38619849D01*
X30720449Y38528708D01*
X30835294Y38470191D01*
X30886216Y38462126D01*
X30962597Y38450028D01*
X30962600Y38450028D01*
X30962603Y38450028D01*
X31026253Y38460110D01*
X31089906Y38470191D01*
X31204751Y38528708D01*
X31295892Y38619849D01*
X31354409Y38734694D01*
X31374572Y38862000D01*
X31354409Y38989306D01*
X31295892Y39104151D01*
X31204751Y39195292D01*
X31204750Y39195293D01*
X31089906Y39253809D01*
X31089903Y39253810D01*
X30962603Y39273972D01*
X30962597Y39273972D01*
X30835296Y39253810D01*
X30835293Y39253809D01*
X30720449Y39195293D01*
X30629307Y39104151D01*
X30570791Y38989307D01*
X30570790Y38989304D01*
X30550628Y38862003D01*
X24127527Y38862003D01*
X24135572Y38912800D01*
X24115409Y39040106D01*
X24056892Y39154951D01*
X23965751Y39246092D01*
X23965750Y39246093D01*
X23850906Y39304609D01*
X23850903Y39304610D01*
X23723603Y39324772D01*
X23723597Y39324772D01*
X23596296Y39304610D01*
X23596293Y39304609D01*
X23481449Y39246093D01*
X23390307Y39154951D01*
X23331791Y39040107D01*
X23331790Y39040104D01*
X23311628Y38912803D01*
X22403300Y38912803D01*
X22403300Y41401823D01*
X22364555Y41495363D01*
X22287232Y41572686D01*
X22287225Y41572692D01*
X21886562Y41973356D01*
X21831767Y41996052D01*
X21793023Y42012100D01*
X21793022Y42012100D01*
X21380899Y42012100D01*
X21321768Y42031313D01*
X21285223Y42081613D01*
X21280299Y42112700D01*
X21280299Y42142656D01*
X21271428Y42187258D01*
X21271426Y42187262D01*
X21237635Y42237833D01*
X21237633Y42237835D01*
X21187057Y42271629D01*
X21151328Y42278736D01*
X21142457Y42280500D01*
X21142456Y42280500D01*
X18712344Y42280500D01*
X18667742Y42271629D01*
X18667738Y42271627D01*
X18617167Y42237836D01*
X18617165Y42237834D01*
X18583371Y42187258D01*
X18574500Y42142657D01*
X18574500Y41372545D01*
X18583371Y41327943D01*
X18583373Y41327939D01*
X18617164Y41277368D01*
X18617165Y41277367D01*
X18617166Y41277366D01*
X18667742Y41243572D01*
X18712343Y41234700D01*
X21142456Y41234701D01*
X21187058Y41243572D01*
X21237634Y41277366D01*
X21271428Y41327942D01*
X21280300Y41372543D01*
X21280300Y41402500D01*
X21299513Y41461631D01*
X21349813Y41498176D01*
X21380900Y41503100D01*
X21595312Y41503100D01*
X21654443Y41483887D01*
X21666447Y41473635D01*
X21864835Y41275248D01*
X21893061Y41219851D01*
X21894300Y41204113D01*
X21894300Y40659088D01*
X21875087Y40599957D01*
X21824787Y40563412D01*
X21762613Y40563412D01*
X21722565Y40587953D01*
X21607162Y40703356D01*
X21552367Y40726052D01*
X21513623Y40742100D01*
X21513622Y40742100D01*
X21380899Y40742100D01*
X21321768Y40761313D01*
X21285223Y40811613D01*
X21280299Y40842700D01*
X21280299Y40872656D01*
X21271428Y40917258D01*
X21271426Y40917262D01*
X21237635Y40967833D01*
X21237633Y40967835D01*
X21187057Y41001629D01*
X21151328Y41008736D01*
X21142457Y41010500D01*
X21142456Y41010500D01*
X18712344Y41010500D01*
X18667742Y41001629D01*
X18667738Y41001627D01*
X18617167Y40967836D01*
X18617165Y40967834D01*
X18583371Y40917258D01*
X18574500Y40872657D01*
X18574500Y40134068D01*
X18555287Y40074937D01*
X18509059Y40039812D01*
X18485312Y40030955D01*
X18370211Y39944789D01*
X18284045Y39829688D01*
X18284044Y39829686D01*
X18233803Y39694981D01*
X18233802Y39694976D01*
X18227400Y39635428D01*
X18227400Y39467600D01*
X20076800Y39467600D01*
X20135931Y39448387D01*
X20172476Y39398087D01*
X20177400Y39367000D01*
X20177400Y38347600D01*
X21175228Y38347600D01*
X21234775Y38354003D01*
X21234780Y38354004D01*
X21369484Y38404245D01*
X21377810Y38410477D01*
X21436661Y38430534D01*
X21496061Y38412169D01*
X21533322Y38362397D01*
X21538700Y38329944D01*
X21538700Y36037288D01*
X21519487Y35978157D01*
X21509235Y35966153D01*
X19697845Y34154764D01*
X19697844Y34154763D01*
X19659100Y34061223D01*
X19659100Y26258288D01*
X19639887Y26199157D01*
X19629635Y26187153D01*
X17475447Y24032965D01*
X17420049Y24004739D01*
X17404312Y24003500D01*
X15062023Y24003500D01*
X14960777Y24003500D01*
X14933380Y23992153D01*
X14867237Y23964756D01*
X13754244Y22851763D01*
X13715500Y22758223D01*
X13715500Y22511413D01*
X13696287Y22452282D01*
X13686035Y22440278D01*
X13636707Y22390951D01*
X13578191Y22276107D01*
X13578190Y22276104D01*
X13558028Y22148803D01*
X12199274Y22148803D01*
X12195584Y22179197D01*
X12139360Y22327446D01*
X12049292Y22457932D01*
X11930613Y22563072D01*
X11790222Y22636756D01*
X11636278Y22674700D01*
X11636276Y22674700D01*
X11477724Y22674700D01*
X11477720Y22674700D01*
X11477719Y22674699D01*
X11361364Y22646021D01*
X11299353Y22650525D01*
X11266155Y22672563D01*
X10939162Y22999556D01*
X10845621Y23038301D01*
X10835905Y23040233D01*
X10836570Y23043578D01*
X10793682Y23057513D01*
X10781678Y23067765D01*
X10732350Y23117093D01*
X10617506Y23175609D01*
X10617503Y23175610D01*
X10490203Y23195772D01*
X10490197Y23195772D01*
X10362896Y23175610D01*
X10362893Y23175609D01*
X10248049Y23117093D01*
X10156907Y23025951D01*
X10098391Y22911107D01*
X10098390Y22911104D01*
X10078228Y22783803D01*
X5024800Y22783803D01*
X5024800Y24328902D01*
X10237554Y24328902D01*
X10238075Y24328575D01*
X10398460Y24272453D01*
X10567296Y24253429D01*
X10567304Y24253429D01*
X10736140Y24272453D01*
X10896519Y24328572D01*
X10897043Y24328902D01*
X12212554Y24328902D01*
X12213075Y24328575D01*
X12373460Y24272453D01*
X12542296Y24253429D01*
X12542304Y24253429D01*
X12711140Y24272453D01*
X12871519Y24328572D01*
X12872043Y24328902D01*
X12872044Y24328903D01*
X12542300Y24658647D01*
X12212554Y24328902D01*
X10897043Y24328902D01*
X10897044Y24328903D01*
X10567300Y24658647D01*
X10237554Y24328902D01*
X5024800Y24328902D01*
X5024800Y25316402D01*
X9250054Y25316402D01*
X9250575Y25316075D01*
X9410960Y25259953D01*
X9579796Y25240929D01*
X9579804Y25240929D01*
X9712217Y25255849D01*
X9773128Y25243378D01*
X9815075Y25197486D01*
X9823448Y25144619D01*
X9808529Y25012206D01*
X9808529Y25012196D01*
X9827552Y24843357D01*
X9883670Y24682984D01*
X9883676Y24682973D01*
X9883999Y24682457D01*
X9884001Y24682457D01*
X10213745Y25012201D01*
X10188484Y25037462D01*
X10440300Y25037462D01*
X10440300Y24986938D01*
X10459635Y24940260D01*
X10495360Y24904535D01*
X10542038Y24885200D01*
X10592562Y24885200D01*
X10639240Y24904535D01*
X10674965Y24940260D01*
X10694300Y24986938D01*
X10694300Y25012201D01*
X10920853Y25012201D01*
X11250597Y24682456D01*
X11250598Y24682457D01*
X11250928Y24682981D01*
X11307047Y24843360D01*
X11326071Y25012196D01*
X11326071Y25012204D01*
X11311151Y25144618D01*
X11323622Y25205529D01*
X11369514Y25247476D01*
X11422382Y25255849D01*
X11554796Y25240929D01*
X11554804Y25240929D01*
X11687217Y25255849D01*
X11748128Y25243378D01*
X11790075Y25197486D01*
X11798448Y25144619D01*
X11783529Y25012206D01*
X11783529Y25012196D01*
X11802552Y24843357D01*
X11858670Y24682984D01*
X11858676Y24682973D01*
X11858999Y24682457D01*
X11859001Y24682457D01*
X12188745Y25012201D01*
X12163484Y25037462D01*
X12415300Y25037462D01*
X12415300Y24986938D01*
X12434635Y24940260D01*
X12470360Y24904535D01*
X12517038Y24885200D01*
X12567562Y24885200D01*
X12614240Y24904535D01*
X12649965Y24940260D01*
X12669300Y24986938D01*
X12669300Y25012201D01*
X12895853Y25012201D01*
X13225597Y24682456D01*
X13225598Y24682457D01*
X13225928Y24682981D01*
X13282047Y24843360D01*
X13301071Y25012196D01*
X13301071Y25012204D01*
X13286151Y25144618D01*
X13298622Y25205529D01*
X13344514Y25247476D01*
X13397382Y25255849D01*
X13529796Y25240929D01*
X13529804Y25240929D01*
X13698640Y25259953D01*
X13859019Y25316072D01*
X13859543Y25316402D01*
X13859544Y25316403D01*
X13529800Y25646147D01*
X13253180Y25369529D01*
X13253175Y25369522D01*
X12895853Y25012201D01*
X12669300Y25012201D01*
X12669300Y25037462D01*
X12649965Y25084140D01*
X12614240Y25119865D01*
X12567562Y25139200D01*
X12517038Y25139200D01*
X12470360Y25119865D01*
X12434635Y25084140D01*
X12415300Y25037462D01*
X12163484Y25037462D01*
X11816109Y25384837D01*
X11816107Y25384840D01*
X11554800Y25646147D01*
X11278180Y25369529D01*
X11278175Y25369522D01*
X10920853Y25012201D01*
X10694300Y25012201D01*
X10694300Y25037462D01*
X10674965Y25084140D01*
X10639240Y25119865D01*
X10592562Y25139200D01*
X10542038Y25139200D01*
X10495360Y25119865D01*
X10459635Y25084140D01*
X10440300Y25037462D01*
X10188484Y25037462D01*
X9841109Y25384837D01*
X9841107Y25384840D01*
X9579800Y25646147D01*
X9250054Y25316402D01*
X5024800Y25316402D01*
X5024800Y25999705D01*
X8821029Y25999705D01*
X8821029Y25999696D01*
X8840052Y25830857D01*
X8896170Y25670484D01*
X8896176Y25670473D01*
X8896499Y25669957D01*
X8896501Y25669957D01*
X9226245Y25999701D01*
X9200984Y26024962D01*
X9452800Y26024962D01*
X9452800Y25974438D01*
X9472135Y25927760D01*
X9507860Y25892035D01*
X9554538Y25872700D01*
X9605062Y25872700D01*
X9651740Y25892035D01*
X9687465Y25927760D01*
X9706800Y25974438D01*
X9706800Y25999701D01*
X9933353Y25999701D01*
X10567300Y25365754D01*
X11201246Y25999700D01*
X11175984Y26024962D01*
X11427800Y26024962D01*
X11427800Y25974438D01*
X11447135Y25927760D01*
X11482860Y25892035D01*
X11529538Y25872700D01*
X11580062Y25872700D01*
X11626740Y25892035D01*
X11662465Y25927760D01*
X11681800Y25974438D01*
X11681800Y25999701D01*
X11908353Y25999701D01*
X12542300Y25365754D01*
X13176246Y25999700D01*
X13150984Y26024962D01*
X13402800Y26024962D01*
X13402800Y25974438D01*
X13422135Y25927760D01*
X13457860Y25892035D01*
X13504538Y25872700D01*
X13555062Y25872700D01*
X13601740Y25892035D01*
X13637465Y25927760D01*
X13656800Y25974438D01*
X13656800Y25999701D01*
X13883353Y25999701D01*
X14213097Y25669956D01*
X14213098Y25669957D01*
X14213428Y25670481D01*
X14269547Y25830860D01*
X14288571Y25999696D01*
X14288571Y25999705D01*
X14269547Y26168540D01*
X14213425Y26328925D01*
X14213098Y26329446D01*
X13883353Y25999701D01*
X13656800Y25999701D01*
X13656800Y26024962D01*
X13637465Y26071640D01*
X13601740Y26107365D01*
X13555062Y26126700D01*
X13504538Y26126700D01*
X13457860Y26107365D01*
X13422135Y26071640D01*
X13402800Y26024962D01*
X13150984Y26024962D01*
X12803609Y26372337D01*
X12803607Y26372340D01*
X12542300Y26633647D01*
X12265680Y26357029D01*
X12265675Y26357022D01*
X11908353Y25999701D01*
X11681800Y25999701D01*
X11681800Y26024962D01*
X11662465Y26071640D01*
X11626740Y26107365D01*
X11580062Y26126700D01*
X11529538Y26126700D01*
X11482860Y26107365D01*
X11447135Y26071640D01*
X11427800Y26024962D01*
X11175984Y26024962D01*
X10828609Y26372337D01*
X10828607Y26372340D01*
X10567300Y26633647D01*
X10290680Y26357029D01*
X10290675Y26357022D01*
X9933353Y25999701D01*
X9706800Y25999701D01*
X9706800Y26024962D01*
X9687465Y26071640D01*
X9651740Y26107365D01*
X9605062Y26126700D01*
X9554538Y26126700D01*
X9507860Y26107365D01*
X9472135Y26071640D01*
X9452800Y26024962D01*
X9200984Y26024962D01*
X8896501Y26329445D01*
X8896171Y26328919D01*
X8896169Y26328916D01*
X8840052Y26168541D01*
X8821029Y25999705D01*
X5024800Y25999705D01*
X5024800Y27291402D01*
X9250054Y27291402D01*
X9250575Y27291075D01*
X9410960Y27234953D01*
X9579796Y27215929D01*
X9579804Y27215929D01*
X9712217Y27230849D01*
X9773128Y27218378D01*
X9815075Y27172486D01*
X9823448Y27119619D01*
X9808529Y26987206D01*
X9808529Y26987195D01*
X9823448Y26854782D01*
X9810977Y26793872D01*
X9765085Y26751925D01*
X9712218Y26743552D01*
X9579805Y26758471D01*
X9579796Y26758471D01*
X9410959Y26739448D01*
X9250584Y26683331D01*
X9250581Y26683329D01*
X9250055Y26682999D01*
X9579800Y26353254D01*
X10213746Y26987200D01*
X10188484Y27012462D01*
X10440300Y27012462D01*
X10440300Y26961938D01*
X10459635Y26915260D01*
X10495360Y26879535D01*
X10542038Y26860200D01*
X10592562Y26860200D01*
X10639240Y26879535D01*
X10674965Y26915260D01*
X10694300Y26961938D01*
X10694300Y26987201D01*
X10920853Y26987201D01*
X11554800Y26353254D01*
X12188746Y26987200D01*
X12163484Y27012462D01*
X12415300Y27012462D01*
X12415300Y26961938D01*
X12434635Y26915260D01*
X12470360Y26879535D01*
X12517038Y26860200D01*
X12567562Y26860200D01*
X12614240Y26879535D01*
X12649965Y26915260D01*
X12669300Y26961938D01*
X12669300Y26987201D01*
X12895853Y26987201D01*
X13529799Y26353255D01*
X13859543Y26682999D01*
X13859543Y26683001D01*
X13859027Y26683324D01*
X13859016Y26683330D01*
X13698643Y26739448D01*
X13529804Y26758471D01*
X13529795Y26758471D01*
X13397381Y26743552D01*
X13336471Y26756023D01*
X13294524Y26801915D01*
X13286151Y26854783D01*
X13301071Y26987197D01*
X13301071Y26987204D01*
X13286151Y27119618D01*
X13298622Y27180529D01*
X13344514Y27222476D01*
X13397382Y27230849D01*
X13529796Y27215929D01*
X13529804Y27215929D01*
X13698640Y27234953D01*
X13859019Y27291072D01*
X13859543Y27291402D01*
X13859544Y27291403D01*
X13529800Y27621147D01*
X13253180Y27344529D01*
X13253175Y27344522D01*
X12895853Y26987201D01*
X12669300Y26987201D01*
X12669300Y27012462D01*
X12649965Y27059140D01*
X12614240Y27094865D01*
X12567562Y27114200D01*
X12517038Y27114200D01*
X12470360Y27094865D01*
X12434635Y27059140D01*
X12415300Y27012462D01*
X12163484Y27012462D01*
X11816109Y27359837D01*
X11816107Y27359840D01*
X11554800Y27621147D01*
X11278180Y27344529D01*
X11278175Y27344522D01*
X10920853Y26987201D01*
X10694300Y26987201D01*
X10694300Y27012462D01*
X10674965Y27059140D01*
X10639240Y27094865D01*
X10592562Y27114200D01*
X10542038Y27114200D01*
X10495360Y27094865D01*
X10459635Y27059140D01*
X10440300Y27012462D01*
X10188484Y27012462D01*
X9841109Y27359837D01*
X9841107Y27359840D01*
X9579800Y27621147D01*
X9250054Y27291402D01*
X5024800Y27291402D01*
X5024800Y27974705D01*
X8821029Y27974705D01*
X8821029Y27974696D01*
X8840052Y27805857D01*
X8896170Y27645484D01*
X8896176Y27645473D01*
X8896499Y27644957D01*
X8896501Y27644957D01*
X9226245Y27974701D01*
X9200984Y27999962D01*
X9452800Y27999962D01*
X9452800Y27949438D01*
X9472135Y27902760D01*
X9507860Y27867035D01*
X9554538Y27847700D01*
X9605062Y27847700D01*
X9651740Y27867035D01*
X9687465Y27902760D01*
X9706800Y27949438D01*
X9706800Y27974701D01*
X9933353Y27974701D01*
X10567300Y27340754D01*
X11201246Y27974700D01*
X11175984Y27999962D01*
X11427800Y27999962D01*
X11427800Y27949438D01*
X11447135Y27902760D01*
X11482860Y27867035D01*
X11529538Y27847700D01*
X11580062Y27847700D01*
X11626740Y27867035D01*
X11662465Y27902760D01*
X11681800Y27949438D01*
X11681800Y27974701D01*
X11908353Y27974701D01*
X12542300Y27340754D01*
X13176246Y27974700D01*
X13150984Y27999962D01*
X13402800Y27999962D01*
X13402800Y27949438D01*
X13422135Y27902760D01*
X13457860Y27867035D01*
X13504538Y27847700D01*
X13555062Y27847700D01*
X13601740Y27867035D01*
X13637465Y27902760D01*
X13656800Y27949438D01*
X13656800Y27974701D01*
X13883353Y27974701D01*
X14213097Y27644956D01*
X14213098Y27644957D01*
X14213428Y27645481D01*
X14263159Y27787603D01*
X17139428Y27787603D01*
X17139428Y27787598D01*
X17159590Y27660297D01*
X17159591Y27660294D01*
X17218107Y27545450D01*
X17298522Y27465035D01*
X17326748Y27409637D01*
X17317022Y27348229D01*
X17298522Y27322765D01*
X17218107Y27242351D01*
X17159591Y27127507D01*
X17159590Y27127504D01*
X17139428Y27000203D01*
X17139428Y27000198D01*
X17159590Y26872897D01*
X17159591Y26872894D01*
X17217892Y26758471D01*
X17218108Y26758049D01*
X17309249Y26666908D01*
X17424094Y26608391D01*
X17475016Y26600326D01*
X17551397Y26588228D01*
X17551400Y26588228D01*
X17551403Y26588228D01*
X17615053Y26598310D01*
X17678706Y26608391D01*
X17793551Y26666908D01*
X17884692Y26758049D01*
X17943209Y26872894D01*
X17963372Y27000200D01*
X17943209Y27127506D01*
X17884692Y27242351D01*
X17804278Y27322765D01*
X17776052Y27378163D01*
X17785778Y27439571D01*
X17804278Y27465035D01*
X17839383Y27500140D01*
X17884692Y27545449D01*
X17943209Y27660294D01*
X17963372Y27787600D01*
X17960480Y27805857D01*
X17950791Y27867035D01*
X17943209Y27914906D01*
X17884692Y28029751D01*
X17793551Y28120892D01*
X17793550Y28120893D01*
X17678706Y28179409D01*
X17678703Y28179410D01*
X17551403Y28199572D01*
X17551397Y28199572D01*
X17424096Y28179410D01*
X17424093Y28179409D01*
X17309249Y28120893D01*
X17218107Y28029751D01*
X17159591Y27914907D01*
X17159590Y27914904D01*
X17139428Y27787603D01*
X14263159Y27787603D01*
X14269547Y27805860D01*
X14288571Y27974696D01*
X14288571Y27974705D01*
X14269547Y28143540D01*
X14213425Y28303925D01*
X14213098Y28304446D01*
X13883353Y27974701D01*
X13656800Y27974701D01*
X13656800Y27999962D01*
X13637465Y28046640D01*
X13601740Y28082365D01*
X13555062Y28101700D01*
X13504538Y28101700D01*
X13457860Y28082365D01*
X13422135Y28046640D01*
X13402800Y27999962D01*
X13150984Y27999962D01*
X12803609Y28347337D01*
X12803607Y28347340D01*
X12542300Y28608647D01*
X12265680Y28332029D01*
X12265675Y28332022D01*
X11908353Y27974701D01*
X11681800Y27974701D01*
X11681800Y27999962D01*
X11662465Y28046640D01*
X11626740Y28082365D01*
X11580062Y28101700D01*
X11529538Y28101700D01*
X11482860Y28082365D01*
X11447135Y28046640D01*
X11427800Y27999962D01*
X11175984Y27999962D01*
X10828609Y28347337D01*
X10828607Y28347340D01*
X10567300Y28608647D01*
X10290680Y28332029D01*
X10290675Y28332022D01*
X9933353Y27974701D01*
X9706800Y27974701D01*
X9706800Y27999962D01*
X9687465Y28046640D01*
X9651740Y28082365D01*
X9605062Y28101700D01*
X9554538Y28101700D01*
X9507860Y28082365D01*
X9472135Y28046640D01*
X9452800Y27999962D01*
X9200984Y27999962D01*
X8896501Y28304445D01*
X8896171Y28303919D01*
X8896169Y28303916D01*
X8840052Y28143541D01*
X8821029Y27974705D01*
X5024800Y27974705D01*
X5024800Y28657999D01*
X9250055Y28657999D01*
X9579800Y28328254D01*
X10213746Y28962200D01*
X10188484Y28987462D01*
X10440300Y28987462D01*
X10440300Y28936938D01*
X10459635Y28890260D01*
X10495360Y28854535D01*
X10542038Y28835200D01*
X10592562Y28835200D01*
X10639240Y28854535D01*
X10674965Y28890260D01*
X10694300Y28936938D01*
X10694300Y28962201D01*
X10920853Y28962201D01*
X11554800Y28328254D01*
X12188746Y28962200D01*
X12163484Y28987462D01*
X12415300Y28987462D01*
X12415300Y28936938D01*
X12434635Y28890260D01*
X12470360Y28854535D01*
X12517038Y28835200D01*
X12567562Y28835200D01*
X12614240Y28854535D01*
X12649965Y28890260D01*
X12669300Y28936938D01*
X12669300Y28962201D01*
X12895853Y28962201D01*
X13529799Y28328255D01*
X13859543Y28657999D01*
X13859543Y28658001D01*
X13859027Y28658324D01*
X13859016Y28658330D01*
X13698643Y28714448D01*
X13529804Y28733471D01*
X13529795Y28733471D01*
X13397381Y28718552D01*
X13336471Y28731023D01*
X13294524Y28776915D01*
X13286151Y28829783D01*
X13301071Y28962197D01*
X13301071Y28962205D01*
X13282047Y29131040D01*
X13225925Y29291425D01*
X13225598Y29291946D01*
X12895853Y28962201D01*
X12669300Y28962201D01*
X12669300Y28987462D01*
X12649965Y29034140D01*
X12614240Y29069865D01*
X12567562Y29089200D01*
X12517038Y29089200D01*
X12470360Y29069865D01*
X12434635Y29034140D01*
X12415300Y28987462D01*
X12163484Y28987462D01*
X11859001Y29291945D01*
X11858671Y29291419D01*
X11858669Y29291416D01*
X11802552Y29131041D01*
X11783529Y28962205D01*
X11783529Y28962195D01*
X11798448Y28829782D01*
X11785977Y28768872D01*
X11740085Y28726925D01*
X11687218Y28718552D01*
X11554805Y28733471D01*
X11554795Y28733471D01*
X11422381Y28718552D01*
X11361471Y28731023D01*
X11319524Y28776915D01*
X11311151Y28829783D01*
X11326071Y28962197D01*
X11326071Y28962205D01*
X11307047Y29131040D01*
X11250925Y29291425D01*
X11250598Y29291946D01*
X10920853Y28962201D01*
X10694300Y28962201D01*
X10694300Y28987462D01*
X10674965Y29034140D01*
X10639240Y29069865D01*
X10592562Y29089200D01*
X10542038Y29089200D01*
X10495360Y29069865D01*
X10459635Y29034140D01*
X10440300Y28987462D01*
X10188484Y28987462D01*
X9884001Y29291945D01*
X9883671Y29291419D01*
X9883669Y29291416D01*
X9827552Y29131041D01*
X9808529Y28962205D01*
X9808529Y28962195D01*
X9823448Y28829782D01*
X9810977Y28768872D01*
X9765085Y28726925D01*
X9712218Y28718552D01*
X9579805Y28733471D01*
X9579796Y28733471D01*
X9410959Y28714448D01*
X9250584Y28658331D01*
X9250581Y28658329D01*
X9250055Y28657999D01*
X5024800Y28657999D01*
X5024800Y29645499D01*
X10237555Y29645499D01*
X10567299Y29315755D01*
X10897043Y29645499D01*
X12212555Y29645499D01*
X12542299Y29315755D01*
X12872043Y29645499D01*
X12872043Y29645501D01*
X12871527Y29645824D01*
X12871516Y29645830D01*
X12711143Y29701948D01*
X12542304Y29720971D01*
X12542296Y29720971D01*
X12373459Y29701948D01*
X12213084Y29645831D01*
X12213081Y29645829D01*
X12212555Y29645499D01*
X10897043Y29645499D01*
X10897043Y29645501D01*
X10896527Y29645824D01*
X10896516Y29645830D01*
X10736143Y29701948D01*
X10567304Y29720971D01*
X10567296Y29720971D01*
X10398459Y29701948D01*
X10238084Y29645831D01*
X10238081Y29645829D01*
X10237555Y29645499D01*
X5024800Y29645499D01*
X5024800Y31826203D01*
X13507228Y31826203D01*
X13507228Y31826198D01*
X13527390Y31698897D01*
X13527391Y31698894D01*
X13582087Y31591547D01*
X13585908Y31584049D01*
X13677049Y31492908D01*
X13791894Y31434391D01*
X13842816Y31426326D01*
X13919197Y31414228D01*
X13919200Y31414228D01*
X13919203Y31414228D01*
X13982853Y31424310D01*
X14046506Y31434391D01*
X14161351Y31492908D01*
X14252492Y31584049D01*
X14256312Y31591548D01*
X14300276Y31635511D01*
X14361685Y31645238D01*
X14417082Y31617011D01*
X14420222Y31613335D01*
X14424107Y31609450D01*
X14424108Y31609449D01*
X14515249Y31518308D01*
X14630094Y31459791D01*
X14681016Y31451726D01*
X14757397Y31439628D01*
X14757400Y31439628D01*
X14757403Y31439628D01*
X14821053Y31449710D01*
X14884706Y31459791D01*
X14999551Y31518308D01*
X15090692Y31609449D01*
X15149209Y31724294D01*
X15169372Y31851600D01*
X15149209Y31978906D01*
X15090692Y32093751D01*
X14999551Y32184892D01*
X14999550Y32184893D01*
X14884706Y32243409D01*
X14884703Y32243410D01*
X14757403Y32263572D01*
X14757397Y32263572D01*
X14630096Y32243410D01*
X14630093Y32243409D01*
X14515249Y32184893D01*
X14424106Y32093750D01*
X14420283Y32086247D01*
X14376316Y32042286D01*
X14314906Y32032565D01*
X14259511Y32060795D01*
X14256370Y32064473D01*
X14161350Y32159493D01*
X14046506Y32218009D01*
X14046503Y32218010D01*
X13919203Y32238172D01*
X13919197Y32238172D01*
X13791896Y32218010D01*
X13791893Y32218009D01*
X13677049Y32159493D01*
X13585907Y32068351D01*
X13527391Y31953507D01*
X13527390Y31953504D01*
X13507228Y31826203D01*
X5024800Y31826203D01*
X5024800Y36144200D01*
X6078847Y36144200D01*
X6098211Y35947594D01*
X6155556Y35758554D01*
X6155557Y35758551D01*
X6155558Y35758550D01*
X6161296Y35747815D01*
X6248684Y35584322D01*
X6345280Y35466619D01*
X6374011Y35431611D01*
X6526722Y35306284D01*
X6700950Y35213158D01*
X6700952Y35213158D01*
X6700953Y35213157D01*
X6889993Y35155812D01*
X6889994Y35155812D01*
X6889997Y35155811D01*
X7086600Y35136447D01*
X7283203Y35155811D01*
X7472250Y35213158D01*
X7646478Y35306284D01*
X7799189Y35431611D01*
X7924516Y35584322D01*
X8017642Y35758550D01*
X8074989Y35947597D01*
X8082094Y36019745D01*
X8107011Y36076706D01*
X8160650Y36108145D01*
X8222525Y36102051D01*
X8269001Y36060751D01*
X8282427Y36018650D01*
X8292030Y35908882D01*
X8292032Y35908871D01*
X8353170Y35680706D01*
X8452997Y35466627D01*
X8453002Y35466619D01*
X8588492Y35273120D01*
X8755519Y35106093D01*
X8949018Y34970603D01*
X8949026Y34970598D01*
X9163105Y34870771D01*
X9376599Y34813566D01*
X9376600Y34813566D01*
X9376600Y35711188D01*
X9433607Y35678275D01*
X9560774Y35644200D01*
X9692426Y35644200D01*
X9819593Y35678275D01*
X9876600Y35711188D01*
X9876600Y34813566D01*
X10090094Y34870771D01*
X10304173Y34970598D01*
X10304181Y34970603D01*
X10497680Y35106093D01*
X10664707Y35273120D01*
X10800197Y35466619D01*
X10800202Y35466627D01*
X10900029Y35680706D01*
X10961167Y35908871D01*
X10961169Y35908883D01*
X10970772Y36018649D01*
X10995065Y36075881D01*
X11048359Y36107904D01*
X11110296Y36102485D01*
X11157220Y36061695D01*
X11171104Y36019744D01*
X11178210Y35947598D01*
X11235556Y35758554D01*
X11235557Y35758551D01*
X11235558Y35758550D01*
X11241296Y35747815D01*
X11328684Y35584322D01*
X11425280Y35466619D01*
X11454011Y35431611D01*
X11606722Y35306284D01*
X11780950Y35213158D01*
X11780952Y35213158D01*
X11780953Y35213157D01*
X11969993Y35155812D01*
X11969994Y35155812D01*
X11969997Y35155811D01*
X12166600Y35136447D01*
X12363203Y35155811D01*
X12552250Y35213158D01*
X12726478Y35306284D01*
X12879189Y35431611D01*
X13004516Y35584322D01*
X13097642Y35758550D01*
X13154989Y35947597D01*
X13174353Y36144200D01*
X13154989Y36340803D01*
X13097642Y36529850D01*
X13004516Y36704078D01*
X12879189Y36856789D01*
X12726478Y36982116D01*
X12675700Y37009257D01*
X13703700Y37009257D01*
X13703700Y35279145D01*
X13712571Y35234543D01*
X13712573Y35234539D01*
X13746364Y35183968D01*
X13746365Y35183967D01*
X13746366Y35183966D01*
X13796942Y35150172D01*
X13841543Y35141300D01*
X15571656Y35141301D01*
X15616258Y35150172D01*
X15666834Y35183966D01*
X15700628Y35234542D01*
X15709500Y35279143D01*
X15709499Y37009256D01*
X15700628Y37053858D01*
X15700626Y37053862D01*
X15666835Y37104433D01*
X15666833Y37104435D01*
X15616257Y37138229D01*
X15580528Y37145336D01*
X15571657Y37147100D01*
X15571656Y37147100D01*
X13841544Y37147100D01*
X13796942Y37138229D01*
X13796938Y37138227D01*
X13746367Y37104436D01*
X13746365Y37104434D01*
X13712571Y37053858D01*
X13703700Y37009257D01*
X12675700Y37009257D01*
X12552250Y37075242D01*
X12552249Y37075243D01*
X12552246Y37075244D01*
X12363206Y37132589D01*
X12166600Y37151953D01*
X11969993Y37132589D01*
X11780953Y37075244D01*
X11606721Y36982116D01*
X11454011Y36856790D01*
X11454010Y36856789D01*
X11328684Y36704079D01*
X11235556Y36529847D01*
X11178210Y36340803D01*
X11171104Y36268657D01*
X11146188Y36211694D01*
X11092547Y36180256D01*
X11030673Y36186351D01*
X10984197Y36227651D01*
X10970772Y36269751D01*
X10961168Y36379519D01*
X10961167Y36379530D01*
X10900029Y36607695D01*
X10800202Y36821773D01*
X10800197Y36821781D01*
X10664707Y37015281D01*
X10497680Y37182308D01*
X10304181Y37317798D01*
X10304173Y37317803D01*
X10090094Y37417630D01*
X9876600Y37474836D01*
X9876600Y36577212D01*
X9819593Y36610125D01*
X9692426Y36644200D01*
X9560774Y36644200D01*
X9433607Y36610125D01*
X9376600Y36577212D01*
X9376600Y37474836D01*
X9376599Y37474836D01*
X9163105Y37417630D01*
X8949027Y37317803D01*
X8949019Y37317798D01*
X8755519Y37182308D01*
X8588492Y37015281D01*
X8453002Y36821781D01*
X8452997Y36821773D01*
X8353170Y36607695D01*
X8292032Y36379530D01*
X8292030Y36379519D01*
X8282427Y36269751D01*
X8258133Y36212519D01*
X8204840Y36180497D01*
X8142902Y36185916D01*
X8095979Y36226707D01*
X8082094Y36268657D01*
X8074989Y36340803D01*
X8017642Y36529850D01*
X7924516Y36704078D01*
X7799189Y36856789D01*
X7646478Y36982116D01*
X7472250Y37075242D01*
X7472249Y37075243D01*
X7472246Y37075244D01*
X7283206Y37132589D01*
X7086600Y37151953D01*
X6889993Y37132589D01*
X6700953Y37075244D01*
X6526721Y36982116D01*
X6374011Y36856790D01*
X6374010Y36856789D01*
X6248684Y36704079D01*
X6155556Y36529847D01*
X6098211Y36340807D01*
X6078847Y36144200D01*
X5024800Y36144200D01*
X5024800Y39602657D01*
X14674500Y39602657D01*
X14674500Y38832545D01*
X14683371Y38787943D01*
X14683373Y38787939D01*
X14717164Y38737368D01*
X14717165Y38737367D01*
X14717166Y38737366D01*
X14767742Y38703572D01*
X14812343Y38694700D01*
X15672300Y38694701D01*
X15731431Y38675488D01*
X15767976Y38625188D01*
X15772900Y38594101D01*
X15772900Y38328778D01*
X15811644Y38235238D01*
X16480035Y37566847D01*
X16508261Y37511449D01*
X16509500Y37495712D01*
X16509500Y31719288D01*
X16490287Y31660157D01*
X16480035Y31648153D01*
X14846445Y30014564D01*
X14846444Y30014563D01*
X14807700Y29921023D01*
X14807700Y28930778D01*
X14846444Y28837238D01*
X14846445Y28837237D01*
X14914810Y28768872D01*
X14976700Y28706983D01*
X15004926Y28651586D01*
X15004928Y28633717D01*
X15005828Y28633717D01*
X15005828Y28625798D01*
X15025990Y28498497D01*
X15025991Y28498494D01*
X15057217Y28437209D01*
X15084508Y28383649D01*
X15175649Y28292508D01*
X15290494Y28233991D01*
X15341416Y28225926D01*
X15417797Y28213828D01*
X15417800Y28213828D01*
X15417803Y28213828D01*
X15481453Y28223910D01*
X15545106Y28233991D01*
X15659951Y28292508D01*
X15751092Y28383649D01*
X15809609Y28498494D01*
X15829772Y28625800D01*
X15828518Y28633717D01*
X15815082Y28718552D01*
X15809609Y28753106D01*
X15751092Y28867951D01*
X15746092Y28872951D01*
X15717866Y28928349D01*
X15727592Y28989757D01*
X15771555Y29033721D01*
X15783237Y29039674D01*
X15812351Y29054508D01*
X15861678Y29103835D01*
X15917076Y29132061D01*
X15932813Y29133300D01*
X15976422Y29133300D01*
X15976423Y29133300D01*
X16069963Y29172045D01*
X16069962Y29172045D01*
X16079118Y29175837D01*
X16080475Y29172560D01*
X16118522Y29184100D01*
X17236982Y29184100D01*
X17296113Y29164887D01*
X17320060Y29137189D01*
X17321183Y29137963D01*
X17324639Y29132956D01*
X17324640Y29132954D01*
X17414708Y29002468D01*
X17533387Y28897328D01*
X17673778Y28823644D01*
X17827724Y28785700D01*
X17827728Y28785700D01*
X17986272Y28785700D01*
X17986276Y28785700D01*
X18140222Y28823644D01*
X18280613Y28897328D01*
X18399292Y29002468D01*
X18489360Y29132954D01*
X18545584Y29281203D01*
X18564695Y29438600D01*
X18545584Y29595997D01*
X18489360Y29744246D01*
X18399292Y29874732D01*
X18280613Y29979872D01*
X18140222Y30053556D01*
X17986278Y30091500D01*
X17986276Y30091500D01*
X17827724Y30091500D01*
X17827721Y30091500D01*
X17673777Y30053556D01*
X17533390Y29979874D01*
X17533388Y29979873D01*
X17533387Y29979872D01*
X17414708Y29874732D01*
X17349050Y29779609D01*
X17321183Y29739237D01*
X17319410Y29740461D01*
X17281572Y29703522D01*
X17236982Y29693100D01*
X16027223Y29693100D01*
X15925977Y29693100D01*
X15925975Y29693100D01*
X15916261Y29691167D01*
X15915930Y29692827D01*
X15865527Y29688869D01*
X15817893Y29715550D01*
X15812350Y29721093D01*
X15697506Y29779609D01*
X15697504Y29779610D01*
X15576401Y29798791D01*
X15521004Y29827017D01*
X15492778Y29882415D01*
X15502504Y29943824D01*
X15521001Y29969284D01*
X16979755Y31428037D01*
X17018501Y31521577D01*
X17018501Y31622823D01*
X17018501Y31630926D01*
X17018500Y31630940D01*
X17018500Y31800803D01*
X17241028Y31800803D01*
X17241028Y31800798D01*
X17261190Y31673497D01*
X17261191Y31673494D01*
X17282873Y31630940D01*
X17319708Y31558649D01*
X17410849Y31467508D01*
X17525694Y31408991D01*
X17576616Y31400926D01*
X17652997Y31388828D01*
X17653000Y31388828D01*
X17653003Y31388828D01*
X17716653Y31398910D01*
X17780306Y31408991D01*
X17895151Y31467508D01*
X17986292Y31558649D01*
X18044809Y31673494D01*
X18064972Y31800800D01*
X18060949Y31826198D01*
X18044809Y31928104D01*
X18044809Y31928106D01*
X17986292Y32042951D01*
X17895151Y32134092D01*
X17895150Y32134093D01*
X17780306Y32192609D01*
X17780303Y32192610D01*
X17653003Y32212772D01*
X17652997Y32212772D01*
X17525696Y32192610D01*
X17525693Y32192609D01*
X17410849Y32134093D01*
X17319707Y32042951D01*
X17261191Y31928107D01*
X17261190Y31928104D01*
X17241028Y31800803D01*
X17018500Y31800803D01*
X17018500Y34417003D01*
X17317228Y34417003D01*
X17317228Y34416998D01*
X17337390Y34289697D01*
X17337391Y34289694D01*
X17395908Y34174849D01*
X17487049Y34083708D01*
X17601894Y34025191D01*
X17652816Y34017126D01*
X17729197Y34005028D01*
X17729200Y34005028D01*
X17729203Y34005028D01*
X17792853Y34015110D01*
X17856506Y34025191D01*
X17971351Y34083708D01*
X18062492Y34174849D01*
X18121009Y34289694D01*
X18141172Y34417000D01*
X18137682Y34439033D01*
X18121009Y34544304D01*
X18121009Y34544306D01*
X18062492Y34659151D01*
X17971351Y34750292D01*
X17971350Y34750293D01*
X17856506Y34808809D01*
X17856503Y34808810D01*
X17729203Y34828972D01*
X17729197Y34828972D01*
X17601896Y34808810D01*
X17601893Y34808809D01*
X17487049Y34750293D01*
X17395907Y34659151D01*
X17337391Y34544307D01*
X17337390Y34544304D01*
X17317228Y34417003D01*
X17018500Y34417003D01*
X17018500Y37580460D01*
X17018501Y37580469D01*
X17018501Y37693423D01*
X16979755Y37786963D01*
X16311365Y38455353D01*
X16283139Y38510751D01*
X16281900Y38526488D01*
X16281900Y38594101D01*
X16301113Y38653232D01*
X16351413Y38689777D01*
X16382500Y38694701D01*
X17242456Y38694701D01*
X17287058Y38703572D01*
X17337634Y38737366D01*
X17371428Y38787942D01*
X17373781Y38799773D01*
X18227400Y38799773D01*
X18233802Y38740225D01*
X18233803Y38740220D01*
X18284044Y38605515D01*
X18284045Y38605513D01*
X18370211Y38490412D01*
X18485312Y38404246D01*
X18485314Y38404245D01*
X18620019Y38354004D01*
X18620024Y38354003D01*
X18679572Y38347600D01*
X19677400Y38347600D01*
X19677400Y38967600D01*
X18227400Y38967600D01*
X18227400Y38799773D01*
X17373781Y38799773D01*
X17380300Y38832543D01*
X17380299Y39602656D01*
X17371428Y39647258D01*
X17371426Y39647262D01*
X17337635Y39697833D01*
X17337633Y39697835D01*
X17287057Y39731629D01*
X17251328Y39738736D01*
X17242457Y39740500D01*
X17242456Y39740500D01*
X14812344Y39740500D01*
X14767742Y39731629D01*
X14767738Y39731627D01*
X14717167Y39697836D01*
X14717165Y39697834D01*
X14683371Y39647258D01*
X14674500Y39602657D01*
X5024800Y39602657D01*
X5024800Y40157403D01*
X11881628Y40157403D01*
X11881628Y40157398D01*
X11901790Y40030097D01*
X11901791Y40030094D01*
X11935110Y39964701D01*
X11960308Y39915249D01*
X12051449Y39824108D01*
X12166294Y39765591D01*
X12217216Y39757526D01*
X12293597Y39745428D01*
X12293600Y39745428D01*
X12293603Y39745428D01*
X12357253Y39755510D01*
X12420906Y39765591D01*
X12535751Y39824108D01*
X12626892Y39915249D01*
X12685409Y40030094D01*
X12705572Y40157400D01*
X12685409Y40284706D01*
X12626892Y40399551D01*
X12577565Y40448878D01*
X12549339Y40504276D01*
X12548100Y40520013D01*
X12548100Y40797712D01*
X12567313Y40856843D01*
X12577565Y40868847D01*
X12581375Y40872657D01*
X14674500Y40872657D01*
X14674500Y40102545D01*
X14683371Y40057943D01*
X14683373Y40057939D01*
X14717164Y40007368D01*
X14717165Y40007367D01*
X14717166Y40007366D01*
X14767742Y39973572D01*
X14812343Y39964700D01*
X17242456Y39964701D01*
X17287058Y39973572D01*
X17337634Y40007366D01*
X17371428Y40057942D01*
X17380300Y40102543D01*
X17380299Y40872656D01*
X17371428Y40917258D01*
X17371426Y40917262D01*
X17337635Y40967833D01*
X17337633Y40967835D01*
X17287057Y41001629D01*
X17251328Y41008736D01*
X17242457Y41010500D01*
X17242456Y41010500D01*
X14812344Y41010500D01*
X14767742Y41001629D01*
X14767738Y41001627D01*
X14717167Y40967836D01*
X14717165Y40967834D01*
X14683371Y40917258D01*
X14674500Y40872657D01*
X12581375Y40872657D01*
X13182353Y41473635D01*
X13237751Y41501861D01*
X13253488Y41503100D01*
X14573901Y41503100D01*
X14633032Y41483887D01*
X14669577Y41433587D01*
X14674501Y41402500D01*
X14674501Y41372545D01*
X14683371Y41327943D01*
X14683373Y41327939D01*
X14717164Y41277368D01*
X14717165Y41277367D01*
X14717166Y41277366D01*
X14767742Y41243572D01*
X14812343Y41234700D01*
X17242456Y41234701D01*
X17287058Y41243572D01*
X17337634Y41277366D01*
X17371428Y41327942D01*
X17380300Y41372543D01*
X17380299Y42142656D01*
X17371428Y42187258D01*
X17371426Y42187262D01*
X17337635Y42237833D01*
X17337633Y42237835D01*
X17287057Y42271629D01*
X17251328Y42278736D01*
X17242457Y42280500D01*
X17242456Y42280500D01*
X14812344Y42280500D01*
X14767742Y42271629D01*
X14767738Y42271627D01*
X14717167Y42237836D01*
X14717165Y42237834D01*
X14683371Y42187258D01*
X14674500Y42142657D01*
X14674500Y42112700D01*
X14655287Y42053569D01*
X14604987Y42017024D01*
X14573900Y42012100D01*
X13168740Y42012100D01*
X13168732Y42012101D01*
X13157023Y42012101D01*
X13055777Y42012101D01*
X12962237Y41973355D01*
X12962235Y41973354D01*
X12077844Y41088963D01*
X12039100Y40995423D01*
X12039100Y40520013D01*
X12019887Y40460882D01*
X12009635Y40448878D01*
X11960307Y40399551D01*
X11901791Y40284707D01*
X11901790Y40284704D01*
X11881628Y40157403D01*
X5024800Y40157403D01*
X5024800Y43459403D01*
X8884428Y43459403D01*
X8884428Y43459398D01*
X8904590Y43332097D01*
X8904591Y43332094D01*
X8963108Y43217249D01*
X9054249Y43126108D01*
X9169094Y43067591D01*
X9220016Y43059526D01*
X9296397Y43047428D01*
X9296400Y43047428D01*
X9296403Y43047428D01*
X9360053Y43057510D01*
X9423706Y43067591D01*
X9538551Y43126108D01*
X9629692Y43217249D01*
X9688209Y43332094D01*
X9708372Y43459400D01*
X9688209Y43586706D01*
X9629692Y43701551D01*
X9538551Y43792692D01*
X9538550Y43792693D01*
X9423706Y43851209D01*
X9423703Y43851210D01*
X9296403Y43871372D01*
X9296397Y43871372D01*
X9169096Y43851210D01*
X9169093Y43851209D01*
X9054249Y43792693D01*
X8963107Y43701551D01*
X8904591Y43586707D01*
X8904590Y43586704D01*
X8884428Y43459403D01*
X5024800Y43459403D01*
X5024800Y44551603D01*
X7690628Y44551603D01*
X7690628Y44551598D01*
X7710790Y44424297D01*
X7710791Y44424294D01*
X7769308Y44309449D01*
X7860449Y44218308D01*
X7975294Y44159791D01*
X8026216Y44151726D01*
X8102597Y44139628D01*
X8102600Y44139628D01*
X8102603Y44139628D01*
X8166253Y44149710D01*
X8229906Y44159791D01*
X8344751Y44218308D01*
X8435892Y44309449D01*
X8494409Y44424294D01*
X8514572Y44551600D01*
X8494409Y44678906D01*
X8435892Y44793751D01*
X8344751Y44884892D01*
X8344750Y44884893D01*
X8229906Y44943409D01*
X8229903Y44943410D01*
X8102603Y44963572D01*
X8102597Y44963572D01*
X7975296Y44943410D01*
X7975293Y44943409D01*
X7860449Y44884893D01*
X7769307Y44793751D01*
X7710791Y44678907D01*
X7710790Y44678904D01*
X7690628Y44551603D01*
X5024800Y44551603D01*
X5024800Y45669203D01*
X27020028Y45669203D01*
X27020028Y45669198D01*
X27040190Y45541897D01*
X27040191Y45541894D01*
X27098708Y45427049D01*
X27189849Y45335908D01*
X27304694Y45277391D01*
X27360411Y45268567D01*
X27439820Y45255989D01*
X27439400Y45253338D01*
X27486559Y45238015D01*
X27523104Y45187715D01*
X27526082Y45168909D01*
X27526789Y45169020D01*
X27548190Y45033897D01*
X27548191Y45033894D01*
X27594295Y44943409D01*
X27606708Y44919049D01*
X27697849Y44827908D01*
X27812694Y44769391D01*
X27863616Y44761326D01*
X27939997Y44749228D01*
X27940000Y44749228D01*
X27940003Y44749228D01*
X28003653Y44759310D01*
X28067306Y44769391D01*
X28182151Y44827908D01*
X28273292Y44919049D01*
X28331809Y45033894D01*
X28351972Y45161200D01*
X28350733Y45169020D01*
X28336763Y45257228D01*
X28331809Y45288506D01*
X28273292Y45403351D01*
X28182151Y45494492D01*
X28182150Y45494493D01*
X28067306Y45553009D01*
X28067303Y45553010D01*
X27932180Y45574411D01*
X27932599Y45577063D01*
X27885441Y45592385D01*
X27848896Y45642685D01*
X27845917Y45661492D01*
X27845211Y45661380D01*
X27823809Y45796504D01*
X27823809Y45796506D01*
X27765292Y45911351D01*
X27674151Y46002492D01*
X27674150Y46002493D01*
X27559306Y46061009D01*
X27559303Y46061010D01*
X27432003Y46081172D01*
X27431997Y46081172D01*
X27304696Y46061010D01*
X27304693Y46061009D01*
X27189849Y46002493D01*
X27098707Y45911351D01*
X27040191Y45796507D01*
X27040190Y45796504D01*
X27020028Y45669203D01*
X5024800Y45669203D01*
X5024800Y46329200D01*
X103400Y46329200D01*
X44269Y46348413D01*
X7724Y46398713D01*
X2800Y46429800D01*
X2800Y47717886D01*
X16505700Y47717886D01*
X16505700Y47481315D01*
X16542706Y47247675D01*
X16542709Y47247661D01*
X16615807Y47022687D01*
X16723200Y46811918D01*
X16723205Y46811909D01*
X16792728Y46716218D01*
X16862250Y46620529D01*
X16862252Y46620527D01*
X17029527Y46453252D01*
X17220909Y46314205D01*
X17220917Y46314201D01*
X17431686Y46206808D01*
X17656660Y46133710D01*
X17656662Y46133710D01*
X17656670Y46133707D01*
X17890314Y46096701D01*
X17890316Y46096700D01*
X17890319Y46096700D01*
X18126884Y46096700D01*
X18126884Y46096701D01*
X18360530Y46133707D01*
X18585513Y46206808D01*
X18796291Y46314205D01*
X18987673Y46453252D01*
X19154948Y46620527D01*
X19293995Y46811909D01*
X19401392Y47022687D01*
X19474493Y47247670D01*
X19511500Y47481319D01*
X19511500Y47717881D01*
X19511500Y47717885D01*
X19511499Y47717886D01*
X19474493Y47951530D01*
X19401392Y48176513D01*
X19401392Y48176514D01*
X19293999Y48387283D01*
X19293995Y48387291D01*
X19154948Y48578673D01*
X18987673Y48745948D01*
X18987671Y48745950D01*
X18887818Y48818497D01*
X18796291Y48884995D01*
X18796285Y48884998D01*
X18796282Y48885000D01*
X18776650Y48895003D01*
X27223228Y48895003D01*
X27223228Y48894998D01*
X27243390Y48767697D01*
X27243391Y48767694D01*
X27301908Y48652849D01*
X27393049Y48561708D01*
X27507894Y48503191D01*
X27558816Y48495126D01*
X27635197Y48483028D01*
X27635200Y48483028D01*
X27635203Y48483028D01*
X27698853Y48493110D01*
X27762506Y48503191D01*
X27877351Y48561708D01*
X27968492Y48652849D01*
X28027009Y48767694D01*
X28045587Y48884993D01*
X28047172Y48894998D01*
X28047172Y48895003D01*
X28027009Y49022304D01*
X28027009Y49022306D01*
X27968492Y49137151D01*
X27877351Y49228292D01*
X27877350Y49228293D01*
X27762506Y49286809D01*
X27762503Y49286810D01*
X27635203Y49306972D01*
X27635197Y49306972D01*
X27507896Y49286810D01*
X27507893Y49286809D01*
X27393049Y49228293D01*
X27301907Y49137151D01*
X27243391Y49022307D01*
X27243390Y49022304D01*
X27223228Y48895003D01*
X18776650Y48895003D01*
X18585513Y48992393D01*
X18360539Y49065491D01*
X18360525Y49065494D01*
X18126885Y49102500D01*
X18126881Y49102500D01*
X17890319Y49102500D01*
X17890315Y49102500D01*
X17656674Y49065494D01*
X17656660Y49065491D01*
X17431686Y48992393D01*
X17220917Y48885000D01*
X17220906Y48884993D01*
X17029528Y48745950D01*
X16862250Y48578672D01*
X16723207Y48387294D01*
X16723200Y48387283D01*
X16615807Y48176514D01*
X16542709Y47951540D01*
X16542706Y47951526D01*
X16505700Y47717886D01*
X2800Y47717886D01*
X2800Y48198305D01*
X2816Y48200098D01*
X2820Y48200372D01*
X5235Y48335782D01*
X6241Y48348280D01*
X44986Y48617756D01*
X48037Y48631778D01*
X54224Y48652850D01*
X124481Y48892124D01*
X129495Y48905565D01*
X147871Y48945803D01*
X7995428Y48945803D01*
X7995428Y48945798D01*
X8015590Y48818497D01*
X8015591Y48818494D01*
X8041473Y48767697D01*
X8074108Y48703649D01*
X8165249Y48612508D01*
X8280094Y48553991D01*
X8331016Y48545926D01*
X8407397Y48533828D01*
X8407400Y48533828D01*
X8407403Y48533828D01*
X8471053Y48543910D01*
X8534706Y48553991D01*
X8649551Y48612508D01*
X8740692Y48703649D01*
X8799209Y48818494D01*
X8811327Y48895003D01*
X8819372Y48945798D01*
X8819372Y48945803D01*
X8800415Y49065491D01*
X8799209Y49073106D01*
X8740692Y49187951D01*
X8649551Y49279092D01*
X8649550Y49279093D01*
X8534706Y49337609D01*
X8534703Y49337610D01*
X8407403Y49357772D01*
X8407397Y49357772D01*
X8280096Y49337610D01*
X8280093Y49337609D01*
X8165249Y49279093D01*
X8074107Y49187951D01*
X8015591Y49073107D01*
X8015590Y49073104D01*
X7995428Y48945803D01*
X147871Y48945803D01*
X242216Y49152390D01*
X249083Y49164966D01*
X395788Y49393242D01*
X404375Y49404714D01*
X582080Y49609797D01*
X592203Y49619920D01*
X797286Y49797625D01*
X808758Y49806212D01*
X1037034Y49952917D01*
X1049610Y49959784D01*
X1296440Y50072508D01*
X1309876Y50077519D01*
X1570224Y50153964D01*
X1584244Y50157014D01*
X1853720Y50195759D01*
X1866218Y50196765D01*
X1998534Y50199124D01*
X2001903Y50199184D01*
X2003696Y50199200D01*
X34001903Y50199200D01*
X34003696Y50199184D01*
G37*
%TD.AperFunction*%
%TD*%
M02*
