M48
; DRILL file {KiCad 8.0.6} date 2024-10-17T17:53:17-0500
; FORMAT={-:-/ absolute / inch / decimal}
; #@! TF.CreationDate,2024-10-17T17:53:17-05:00
; #@! TF.GenerationSoftware,Kicad,Pcbnew,8.0.6
; #@! TF.FileFunction,Plated,1,4,PTH
FMAT,2
INCH
; #@! TA.AperFunction,Plated,PTH,ViaDrill
T1C0.0100
; #@! TA.AperFunction,Plated,PTH,ComponentDrill
T2C0.0100
; #@! TA.AperFunction,Plated,PTH,ComponentDrill
T3C0.0197
; #@! TA.AperFunction,Plated,PTH,ComponentDrill
T4C0.0295
; #@! TA.AperFunction,Plated,PTH,ComponentDrill
T5C0.0394
%
G90
G05
T1
X0.07Y0.109
X0.204Y1.872
X0.22Y0.782
X0.22Y0.507
X0.302Y0.162
X0.304Y0.191
X0.319Y1.754
X0.331Y1.927
X0.342Y0.133
X0.365Y0.053
X0.366Y1.711
X0.374Y0.677
X0.385Y1.896
X0.409Y0.329
X0.413Y0.897
X0.423Y0.786
X0.43Y1.598
X0.433Y1.957
X0.443Y0.594
X0.484Y1.581
X0.548Y1.253
X0.55Y0.872
X0.573Y0.426
X0.581Y1.254
X0.581Y0.872
X0.607Y1.127
X0.613Y1.157
X0.627Y0.117
X0.681Y1.725
X0.681Y0.233
X0.691Y1.094
X0.691Y1.063
X0.695Y1.314
X0.695Y1.252
X0.698Y1.355
X0.699Y0.864
X0.7Y0.898
X0.738Y0.787
X0.76Y0.266
X0.79Y0.969
X0.799Y1.482
X0.818Y0.43
X0.82Y0.969
X0.859Y0.956
X0.877Y1.139
X0.931Y1.189
X0.934Y1.532
X0.936Y0.257
X0.946Y0.402
X1.034Y0.619
X1.049Y0.144
X1.058Y0.762
X1.06Y1.841
X1.065Y0.054
X1.069Y1.214
X1.075Y0.256
X1.08Y1.798
X1.088Y1.925
X1.095Y1.172
X1.1Y1.778
X1.111Y0.21
X1.13Y0.92
X1.136Y0.411
X1.147Y1.06
X1.159Y0.372
X1.219Y1.53
X1.255Y1.282
X1.291Y0.219
X1.307Y1.571
X1.332Y0.112
X1.335Y1.206
X1.355Y1.854
T2
X0.3772Y1.1014
X0.3772Y1.0236
X0.416Y1.1402
X0.416Y1.0625
X0.416Y0.9847
X0.4549Y1.1014
X0.4549Y1.0236
X0.4938Y1.1402
X0.4938Y1.0625
X0.4938Y0.9847
X0.5327Y1.1014
X0.5327Y1.0236
T4
X1.0133Y1.3844
X1.0133Y1.3056
T5
X0.279Y1.423
X0.379Y1.423
X0.479Y1.423
X0.579Y1.423
T3
G00X0.5419Y0.4953
M15
G01X0.5419Y0.4678
M16
G05
G00X0.8781Y0.4953
M15
G01X0.8781Y0.4678
M16
G05
M30
