%TF.GenerationSoftware,KiCad,Pcbnew,8.0.6*%
%TF.CreationDate,2024-10-17T17:53:17-05:00*%
%TF.ProjectId,racer,72616365-722e-46b6-9963-61645f706362,rev?*%
%TF.SameCoordinates,Original*%
%TF.FileFunction,Paste,Top*%
%TF.FilePolarity,Positive*%
%FSLAX46Y46*%
G04 Gerber Fmt 4.6, Leading zero omitted, Abs format (unit mm)*
G04 Created by KiCad (PCBNEW 8.0.6) date 2024-10-17 17:53:17*
%MOMM*%
%LPD*%
G01*
G04 APERTURE LIST*
G04 Aperture macros list*
%AMRoundRect*
0 Rectangle with rounded corners*
0 $1 Rounding radius*
0 $2 $3 $4 $5 $6 $7 $8 $9 X,Y pos of 4 corners*
0 Add a 4 corners polygon primitive as box body*
4,1,4,$2,$3,$4,$5,$6,$7,$8,$9,$2,$3,0*
0 Add four circle primitives for the rounded corners*
1,1,$1+$1,$2,$3*
1,1,$1+$1,$4,$5*
1,1,$1+$1,$6,$7*
1,1,$1+$1,$8,$9*
0 Add four rect primitives between the rounded corners*
20,1,$1+$1,$2,$3,$4,$5,0*
20,1,$1+$1,$4,$5,$6,$7,0*
20,1,$1+$1,$6,$7,$8,$9,0*
20,1,$1+$1,$8,$9,$2,$3,0*%
G04 Aperture macros list end*
%ADD10C,0.010000*%
%ADD11RoundRect,0.225000X-0.225000X-0.250000X0.225000X-0.250000X0.225000X0.250000X-0.225000X0.250000X0*%
%ADD12RoundRect,0.225000X0.250000X-0.225000X0.250000X0.225000X-0.250000X0.225000X-0.250000X-0.225000X0*%
%ADD13RoundRect,0.225000X-0.250000X0.225000X-0.250000X-0.225000X0.250000X-0.225000X0.250000X0.225000X0*%
%ADD14RoundRect,0.225000X0.225000X0.250000X-0.225000X0.250000X-0.225000X-0.250000X0.225000X-0.250000X0*%
%ADD15RoundRect,0.200000X-0.200000X-0.275000X0.200000X-0.275000X0.200000X0.275000X-0.200000X0.275000X0*%
%ADD16RoundRect,0.200000X0.200000X0.275000X-0.200000X0.275000X-0.200000X-0.275000X0.200000X-0.275000X0*%
%ADD17RoundRect,0.200000X-0.275000X0.200000X-0.275000X-0.200000X0.275000X-0.200000X0.275000X0.200000X0*%
%ADD18RoundRect,0.200000X0.275000X-0.200000X0.275000X0.200000X-0.275000X0.200000X-0.275000X-0.200000X0*%
%ADD19RoundRect,0.175000X-0.175000X-0.325000X0.175000X-0.325000X0.175000X0.325000X-0.175000X0.325000X0*%
%ADD20RoundRect,0.075000X-0.340000X-0.075000X0.340000X-0.075000X0.340000X0.075000X-0.340000X0.075000X0*%
%ADD21RoundRect,0.225000X-0.225000X-0.425000X0.225000X-0.425000X0.225000X0.425000X-0.225000X0.425000X0*%
%ADD22R,0.650000X1.050000*%
%ADD23R,0.700000X2.000000*%
%ADD24R,0.800000X2.000000*%
%ADD25R,0.900000X2.000000*%
%ADD26RoundRect,0.075000X0.340000X0.075000X-0.340000X0.075000X-0.340000X-0.075000X0.340000X-0.075000X0*%
%ADD27RoundRect,0.225000X0.225000X0.425000X-0.225000X0.425000X-0.225000X-0.425000X0.225000X-0.425000X0*%
%ADD28RoundRect,0.218750X-0.256250X0.218750X-0.256250X-0.218750X0.256250X-0.218750X0.256250X0.218750X0*%
%ADD29R,0.400000X0.800000*%
%ADD30R,0.800000X0.400000*%
%ADD31R,1.450000X1.450000*%
%ADD32R,0.700000X0.700000*%
%ADD33R,1.050000X0.650000*%
%ADD34RoundRect,0.150000X-0.200000X0.150000X-0.200000X-0.150000X0.200000X-0.150000X0.200000X0.150000X0*%
%ADD35R,2.500000X1.200000*%
%ADD36RoundRect,0.075400X-0.054600X-0.344600X0.054600X-0.344600X0.054600X0.344600X-0.054600X0.344600X0*%
G04 APERTURE END LIST*
D10*
%TO.C,U5*%
X10304800Y24287200D02*
X9454800Y24287200D01*
X8854800Y24887200D01*
X8854800Y25737200D01*
X10304800Y25737200D01*
X10304800Y24287200D01*
G36*
X10304800Y24287200D02*
G01*
X9454800Y24287200D01*
X8854800Y24887200D01*
X8854800Y25737200D01*
X10304800Y25737200D01*
X10304800Y24287200D01*
G37*
%TO.C,U7*%
X25355888Y20301342D02*
X23854600Y20301342D01*
X23854600Y21302200D01*
X25355888Y21302200D01*
X25355888Y20301342D01*
G36*
X25355888Y20301342D02*
G01*
X23854600Y20301342D01*
X23854600Y21302200D01*
X25355888Y21302200D01*
X25355888Y20301342D01*
G37*
%TD*%
D11*
%TO.C,D4*%
X2514000Y48945800D03*
X4064000Y48945800D03*
%TD*%
D12*
%TO.C,C2*%
X20150400Y44144200D03*
X20150400Y45694200D03*
%TD*%
D11*
%TO.C,C16*%
X24117000Y17195800D03*
X25667000Y17195800D03*
%TD*%
D13*
%TO.C,C7*%
X13538200Y5868000D03*
X13538200Y4318000D03*
%TD*%
D14*
%TO.C,C12*%
X8395000Y15468600D03*
X6845000Y15468600D03*
%TD*%
D15*
%TO.C,R6*%
X7379200Y7379000D03*
X9029200Y7379000D03*
%TD*%
D16*
%TO.C,R4*%
X27579400Y42887200D03*
X25929400Y42887200D03*
%TD*%
D17*
%TO.C,R23*%
X24663400Y25881600D03*
X24663400Y24231600D03*
%TD*%
D16*
%TO.C,R14*%
X30365200Y48945800D03*
X28715200Y48945800D03*
%TD*%
D11*
%TO.C,C14*%
X31067200Y31521400D03*
X32617200Y31521400D03*
%TD*%
D13*
%TO.C,D9*%
X28930600Y17361200D03*
X28930600Y15811200D03*
%TD*%
D17*
%TO.C,R7*%
X29743400Y5574800D03*
X29743400Y3924800D03*
%TD*%
D18*
%TO.C,R26*%
X7035800Y40856400D03*
X7035800Y42506400D03*
%TD*%
D17*
%TO.C,R25*%
X34636200Y34884400D03*
X34636200Y33234400D03*
%TD*%
%TO.C,R28*%
X26974800Y10172200D03*
X26974800Y8522200D03*
%TD*%
D19*
%TO.C,U6*%
X30942200Y33523400D03*
X31892200Y33523400D03*
X32842200Y33523400D03*
X32842200Y36123400D03*
X30942200Y36123400D03*
%TD*%
D11*
%TO.C,C15*%
X30975000Y37896800D03*
X32525000Y37896800D03*
%TD*%
D18*
%TO.C,R17*%
X18999200Y15939000D03*
X18999200Y17589000D03*
%TD*%
%TO.C,R5*%
X5867400Y5829800D03*
X5867400Y7479800D03*
%TD*%
D17*
%TO.C,R29*%
X25349200Y10146800D03*
X25349200Y8496800D03*
%TD*%
D15*
%TO.C,R12*%
X6363200Y1371600D03*
X8013200Y1371600D03*
%TD*%
D13*
%TO.C,C13*%
X18948400Y24600200D03*
X18948400Y23050200D03*
%TD*%
%TO.C,D8*%
X33096200Y17361200D03*
X33096200Y15811200D03*
%TD*%
D16*
%TO.C,R10*%
X26479000Y38912800D03*
X24829000Y38912800D03*
%TD*%
%TO.C,R9*%
X11594600Y13792200D03*
X9944600Y13792200D03*
%TD*%
D15*
%TO.C,R30*%
X24829000Y40513000D03*
X26479000Y40513000D03*
%TD*%
D20*
%TO.C,U4*%
X25162800Y5818000D03*
X25162800Y5318000D03*
X25162800Y4818000D03*
X25162800Y4318000D03*
X27292800Y4318000D03*
X27292800Y4818000D03*
X27292800Y5318000D03*
X27292800Y5818000D03*
D21*
X26237800Y5068000D03*
%TD*%
D22*
%TO.C,S2*%
X18787800Y28913000D03*
X18787800Y33063000D03*
X20937800Y28913000D03*
X20937800Y33063000D03*
%TD*%
D17*
%TO.C,R22*%
X27432000Y22300200D03*
X27432000Y20650200D03*
%TD*%
%TO.C,R3*%
X29159200Y44462200D03*
X29159200Y42812200D03*
%TD*%
D13*
%TO.C,C3*%
X14165000Y45602000D03*
X14165000Y44052000D03*
%TD*%
D12*
%TO.C,C8*%
X22466800Y4305000D03*
X22466800Y5855000D03*
%TD*%
D23*
%TO.C,P1*%
X17534000Y13031600D03*
D24*
X16514000Y13031600D03*
D25*
X15284000Y13031600D03*
D23*
X18534000Y13031600D03*
D24*
X19554000Y13031600D03*
D25*
X20784000Y13031600D03*
%TD*%
D16*
%TO.C,R13*%
X29666400Y1371600D03*
X28016400Y1371600D03*
%TD*%
D26*
%TO.C,U1*%
X11430000Y44077000D03*
X11430000Y44577000D03*
X11430000Y45077000D03*
X11430000Y45577000D03*
X9300000Y45577000D03*
X9300000Y45077000D03*
X9300000Y44577000D03*
X9300000Y44077000D03*
D27*
X10355000Y44827000D03*
%TD*%
D18*
%TO.C,TH1*%
X24664800Y27533600D03*
X24664800Y29183600D03*
%TD*%
D20*
%TO.C,U2*%
X24409400Y45669200D03*
X24409400Y45169200D03*
X24409400Y44669200D03*
X24409400Y44169200D03*
X26539400Y44169200D03*
X26539400Y44669200D03*
X26539400Y45169200D03*
X26539400Y45669200D03*
D21*
X25484400Y44919200D03*
%TD*%
D15*
%TO.C,R15*%
X5766000Y48945800D03*
X7416000Y48945800D03*
%TD*%
D28*
%TO.C,D6*%
X34636200Y39166900D03*
X34636200Y37591900D03*
%TD*%
D29*
%TO.C,U5*%
X7554800Y21087200D03*
X8354800Y21087200D03*
X9154800Y21087200D03*
X9954800Y21087200D03*
X10754800Y21087200D03*
X11554800Y21087200D03*
X12354800Y21087200D03*
X13154800Y21087200D03*
X13954800Y21087200D03*
X14754800Y21087200D03*
X15554800Y21087200D03*
D30*
X16454800Y22187200D03*
X16454800Y22987200D03*
X16454800Y23787200D03*
X16454800Y24587200D03*
X16454800Y25387200D03*
X16454800Y26187200D03*
X16454800Y26987200D03*
X16454800Y27787200D03*
X16454800Y28587200D03*
X16454800Y29387200D03*
X16454800Y30187200D03*
X16454800Y30987200D03*
X16454800Y31787200D03*
D29*
X15554800Y32887200D03*
X14754800Y32887200D03*
X13954800Y32887200D03*
X13154800Y32887200D03*
X12354800Y32887200D03*
X11554800Y32887200D03*
X10754800Y32887200D03*
X9954800Y32887200D03*
X9154800Y32887200D03*
X8354800Y32887200D03*
X7554800Y32887200D03*
D30*
X6654800Y31787200D03*
X6654800Y30987200D03*
X6654800Y30187200D03*
X6654800Y29387200D03*
X6654800Y28587200D03*
X6654800Y27787200D03*
X6654800Y26987200D03*
X6654800Y26187200D03*
X6654800Y25387200D03*
X6654800Y24587200D03*
X6654800Y23787200D03*
X6654800Y22987200D03*
X6654800Y22187200D03*
D31*
X11554800Y25012200D03*
X13529800Y25012200D03*
X9579800Y26987200D03*
X11554800Y26987200D03*
X13529800Y26987200D03*
X9579800Y28962200D03*
X11554800Y28962200D03*
X13529800Y28962200D03*
D32*
X6604800Y32937200D03*
X16504800Y32937200D03*
X16504800Y21037200D03*
X6604800Y21037200D03*
%TD*%
D12*
%TO.C,C4*%
X21928400Y44144200D03*
X21928400Y45694200D03*
%TD*%
D13*
%TO.C,C5*%
X15316200Y5868000D03*
X15316200Y4318000D03*
%TD*%
D15*
%TO.C,R11*%
X18707600Y26746200D03*
X20357600Y26746200D03*
%TD*%
D14*
%TO.C,D2*%
X32918400Y1371600D03*
X31368400Y1371600D03*
%TD*%
D26*
%TO.C,U3*%
X10842200Y4355000D03*
X10842200Y4855000D03*
X10842200Y5355000D03*
X10842200Y5855000D03*
X8712200Y5855000D03*
X8712200Y5355000D03*
X8712200Y4855000D03*
X8712200Y4355000D03*
D27*
X9767200Y5105000D03*
%TD*%
D18*
%TO.C,R1*%
X7366000Y45580800D03*
X7366000Y47230800D03*
%TD*%
D11*
%TO.C,D1*%
X3187400Y1362200D03*
X4737400Y1362200D03*
%TD*%
D18*
%TO.C,R18*%
X17145000Y15939000D03*
X17145000Y17589000D03*
%TD*%
%TO.C,R27*%
X8631400Y40869600D03*
X8631400Y42519600D03*
%TD*%
D33*
%TO.C,S3*%
X6332400Y11768400D03*
X10482400Y11768400D03*
X6332400Y9618400D03*
X10482400Y9618400D03*
%TD*%
D12*
%TO.C,C6*%
X20688800Y4320000D03*
X20688800Y5870000D03*
%TD*%
D14*
%TO.C,C11*%
X8369600Y18872200D03*
X6819600Y18872200D03*
%TD*%
%TO.C,C10*%
X8407400Y13792200D03*
X6857400Y13792200D03*
%TD*%
D13*
%TO.C,C1*%
X15943000Y45602000D03*
X15943000Y44052000D03*
%TD*%
D18*
%TO.C,R21*%
X28930600Y12675600D03*
X28930600Y14325600D03*
%TD*%
D14*
%TO.C,D3*%
X33617200Y48920400D03*
X32067200Y48920400D03*
%TD*%
D34*
%TO.C,D5*%
X20777200Y16064000D03*
X20777200Y17464000D03*
%TD*%
D35*
%TO.C,S1*%
X31108200Y21909400D03*
X31108200Y24409400D03*
X31108200Y26909400D03*
%TD*%
D17*
%TO.C,R24*%
X26466800Y29183600D03*
X26466800Y27533600D03*
%TD*%
D18*
%TO.C,R20*%
X33096200Y12687800D03*
X33096200Y14337800D03*
%TD*%
D15*
%TO.C,R2*%
X8979400Y47167800D03*
X10629400Y47167800D03*
%TD*%
D36*
%TO.C,U7*%
X23604600Y19367200D03*
X24104600Y19367200D03*
X24604600Y19367200D03*
X25104600Y19367200D03*
X25604600Y19367200D03*
X25604600Y22237200D03*
X25104600Y22237200D03*
X24604600Y22237200D03*
X24104600Y22237200D03*
X23604600Y22237200D03*
%TD*%
D12*
%TO.C,C17*%
X22860000Y24281600D03*
X22860000Y25831600D03*
%TD*%
D18*
%TO.C,R16*%
X15265400Y15939000D03*
X15265400Y17589000D03*
%TD*%
D14*
%TO.C,C9*%
X8395000Y17195800D03*
X6845000Y17195800D03*
%TD*%
D18*
%TO.C,R8*%
X31369000Y3924800D03*
X31369000Y5574800D03*
%TD*%
M02*
