%TF.GenerationSoftware,KiCad,Pcbnew,8.0.6*%
%TF.CreationDate,2024-10-17T17:53:17-05:00*%
%TF.ProjectId,racer,72616365-722e-46b6-9963-61645f706362,rev?*%
%TF.SameCoordinates,Original*%
%TF.FileFunction,Copper,L3,Inr*%
%TF.FilePolarity,Positive*%
%FSLAX46Y46*%
G04 Gerber Fmt 4.6, Leading zero omitted, Abs format (unit mm)*
G04 Created by KiCad (PCBNEW 8.0.6) date 2024-10-17 17:53:17*
%MOMM*%
%LPD*%
G01*
G04 APERTURE LIST*
G04 Aperture macros list*
%AMRoundRect*
0 Rectangle with rounded corners*
0 $1 Rounding radius*
0 $2 $3 $4 $5 $6 $7 $8 $9 X,Y pos of 4 corners*
0 Add a 4 corners polygon primitive as box body*
4,1,4,$2,$3,$4,$5,$6,$7,$8,$9,$2,$3,0*
0 Add four circle primitives for the rounded corners*
1,1,$1+$1,$2,$3*
1,1,$1+$1,$4,$5*
1,1,$1+$1,$6,$7*
1,1,$1+$1,$8,$9*
0 Add four rect primitives between the rounded corners*
20,1,$1+$1,$2,$3,$4,$5,0*
20,1,$1+$1,$4,$5,$6,$7,0*
20,1,$1+$1,$6,$7,$8,$9,0*
20,1,$1+$1,$8,$9,$2,$3,0*%
G04 Aperture macros list end*
%TA.AperFunction,ComponentPad*%
%ADD10RoundRect,0.250000X0.625000X-0.350000X0.625000X0.350000X-0.625000X0.350000X-0.625000X-0.350000X0*%
%TD*%
%TA.AperFunction,ComponentPad*%
%ADD11O,1.750000X1.200000*%
%TD*%
%TA.AperFunction,ComponentPad*%
%ADD12O,1.000000X1.700000*%
%TD*%
%TA.AperFunction,ComponentPad*%
%ADD13R,1.700000X1.700000*%
%TD*%
%TA.AperFunction,ComponentPad*%
%ADD14O,1.700000X1.700000*%
%TD*%
%TA.AperFunction,ComponentPad*%
%ADD15C,0.508000*%
%TD*%
%TA.AperFunction,ViaPad*%
%ADD16C,0.508000*%
%TD*%
%TA.AperFunction,Conductor*%
%ADD17C,0.203200*%
%TD*%
G04 APERTURE END LIST*
D10*
%TO.N,GND*%
%TO.C,J12*%
X25739000Y33163000D03*
D11*
%TO.N,LIPO+*%
X25739000Y35163000D03*
%TD*%
D12*
%TO.N,Net-(P1-SHIELD)*%
%TO.C,P1*%
X13764000Y12231600D03*
%TO.N,N/C*%
X22304000Y12231600D03*
%TD*%
D13*
%TO.N,/U0RXD*%
%TO.C,J11*%
X14706600Y36144200D03*
D14*
%TO.N,/U0TXD*%
X12166600Y36144200D03*
%TO.N,GND*%
X9626600Y36144200D03*
%TO.N,+3V3*%
X7086600Y36144200D03*
%TD*%
D15*
%TO.N,GND*%
%TO.C,U5*%
X10567300Y25012200D03*
X12542300Y25012200D03*
X9579800Y25999700D03*
X11554800Y25999700D03*
X13529800Y25999700D03*
X10567300Y26987200D03*
X12542300Y26987200D03*
X9579800Y27974700D03*
X11554800Y27974700D03*
X13529800Y27974700D03*
X10567300Y28962200D03*
X12542300Y28962200D03*
%TD*%
D16*
%TO.N,GND*%
X5181600Y47548800D03*
X14554200Y10820400D03*
X27813000Y29768800D03*
X5588000Y19862800D03*
X5588000Y12877800D03*
X34417000Y47091600D03*
X26873200Y19354800D03*
X18745200Y19989800D03*
X32791400Y5562600D03*
X17297400Y43815000D03*
X26644600Y3657600D03*
X26263600Y15722600D03*
X19304000Y6756400D03*
X23774400Y6527800D03*
X20294600Y37642800D03*
X10922000Y40589200D03*
X33909000Y30632400D03*
X17653000Y33375600D03*
X20828000Y24612600D03*
X1778000Y2768600D03*
X31877000Y32562800D03*
X33197800Y39903400D03*
X33832800Y2844800D03*
X10998200Y49707800D03*
X23647400Y30200600D03*
X9779000Y48158400D03*
X22275800Y28930600D03*
X10388600Y8356600D03*
X20777200Y10922000D03*
X8686800Y3378200D03*
X26924000Y46761400D03*
X15925800Y2971800D03*
X24028400Y10210800D03*
X28854400Y10439400D03*
%TO.N,+3V3*%
X11252200Y15087600D03*
X20066000Y24612600D03*
X30962600Y38862000D03*
X12293600Y40157400D03*
X9499600Y17195800D03*
%TO.N,/ADC_BATT*%
X23723600Y38912800D03*
X10744200Y19964400D03*
%TO.N,Net-(U5-IO27)*%
X9271000Y1346200D03*
X13919200Y31826200D03*
%TO.N,Net-(U5-IO26)*%
X27051000Y1371600D03*
X14757400Y31851600D03*
%TO.N,Net-(U5-IO25)*%
X17729200Y34417000D03*
X27635200Y48895000D03*
%TO.N,Net-(U5-IO22)*%
X8407400Y48945800D03*
X17653000Y31800800D03*
%TO.N,MOTOR_0_IN1*%
X8102600Y44551600D03*
X7721600Y4851400D03*
X17754600Y21945600D03*
%TO.N,MOTOR_0_IN2*%
X17780000Y22809200D03*
X7670800Y4114800D03*
X9296400Y43459400D03*
%TO.N,MOTOR_1_IN1*%
X27940000Y45161200D03*
X28219400Y5334000D03*
X17551400Y27000200D03*
%TO.N,MOTOR_1_IN2*%
X27305000Y6502400D03*
X17551400Y27787600D03*
X27432000Y45669200D03*
%TO.N,/SCL*%
X13970000Y22148800D03*
%TO.N,Net-(U5-IO11)*%
X15570200Y29387800D03*
%TO.N,Net-(U5-IO3)*%
X10490200Y22783800D03*
%TO.N,/SDA*%
X14757400Y22148800D03*
%TO.N,/HAL_OUT*%
X15417800Y28625800D03*
%TO.N,/CHRGR+*%
X21818600Y24282400D03*
X28702000Y23368000D03*
%TO.N,RAW*%
X29133800Y26924000D03*
X17297400Y5918200D03*
X27152600Y30835600D03*
X29438600Y9448800D03*
%TD*%
D17*
%TO.N,Net-(U5-IO27)*%
X14351000Y31394400D02*
X13919200Y31826200D01*
X9271000Y1346200D02*
X9525000Y1346200D01*
X11938000Y22275800D02*
X14351000Y24688800D01*
X11938000Y3759200D02*
X11938000Y22275800D01*
X14351000Y24688800D02*
X14351000Y31394400D01*
X9525000Y1346200D02*
X11938000Y3759200D01*
%TO.N,Net-(U5-IO26)*%
X14757400Y31851600D02*
X14833600Y31775400D01*
X14833600Y31775400D02*
X14833600Y24307800D01*
X23825200Y16586200D02*
X25857200Y14554200D01*
X25857200Y14554200D02*
X25857200Y2565400D01*
X13030200Y18643600D02*
X15087600Y16586200D01*
X15087600Y16586200D02*
X23825200Y16586200D01*
X13030200Y22504400D02*
X13030200Y18643600D01*
X25857200Y2565400D02*
X27051000Y1371600D01*
X14833600Y24307800D02*
X13030200Y22504400D01*
%TO.N,MOTOR_0_IN1*%
X19405600Y23596600D02*
X17754600Y21945600D01*
X8102600Y44551600D02*
X9626600Y44551600D01*
X16713200Y43281600D02*
X19405600Y40589200D01*
X10896600Y43281600D02*
X16713200Y43281600D01*
X19405600Y40589200D02*
X19405600Y23596600D01*
X9626600Y44551600D02*
X10896600Y43281600D01*
%TO.N,MOTOR_0_IN2*%
X10236200Y42519600D02*
X9296400Y43459400D01*
X18745200Y40233600D02*
X16459200Y42519600D01*
X17780000Y22809200D02*
X18745200Y23774400D01*
X18745200Y23774400D02*
X18745200Y40233600D01*
X16459200Y42519600D02*
X10236200Y42519600D01*
%TO.N,MOTOR_1_IN1*%
X17119600Y27000200D02*
X16510000Y26390600D01*
X16510000Y26390600D02*
X16510000Y20980400D01*
X18288000Y19202400D02*
X25069800Y19202400D01*
X16510000Y20980400D02*
X18288000Y19202400D01*
X17551400Y27000200D02*
X17119600Y27000200D01*
X25069800Y19202400D02*
X28219400Y16052800D01*
X28219400Y16052800D02*
X28219400Y5334000D01*
%TO.N,MOTOR_1_IN2*%
X15671800Y20599400D02*
X15671800Y26644600D01*
X27305000Y6502400D02*
X27305000Y15798800D01*
X24714200Y18389600D02*
X17881600Y18389600D01*
X16814800Y27787600D02*
X17551400Y27787600D01*
X15671800Y26644600D02*
X16814800Y27787600D01*
X17881600Y18389600D02*
X15671800Y20599400D01*
X27305000Y15798800D02*
X24714200Y18389600D01*
%TD*%
M02*
